<?xml version="1.0" encoding="UTF-8"?>
<svg version="1.1" xmlns="http://www.w3.org/2000/svg" width="512" height="512">
<path d="M0 0 C1.4685113 -0.00417883 2.93701937 -0.00965936 4.40552151 -0.01631981 C8.41878597 -0.03072115 12.43184413 -0.02654642 16.44511962 -0.019153 C20.78197494 -0.01441041 25.11878633 -0.02694082 29.45562744 -0.03717041 C37.94335017 -0.05434249 46.43099883 -0.05520171 54.91873442 -0.04995751 C61.81962131 -0.04591156 68.72048636 -0.04736441 75.62137222 -0.05270576 C76.60458125 -0.05345419 77.58779028 -0.05420261 78.60079352 -0.05497371 C80.59836141 -0.05650523 82.59592929 -0.05804358 84.59349717 -0.05958868 C103.31483099 -0.073308 122.03612298 -0.06788005 140.75745584 -0.05640347 C157.87211696 -0.04647202 174.98666996 -0.05941125 192.10131441 -0.08333766 C209.68921319 -0.10773978 227.27706164 -0.11733377 244.864977 -0.11068493 C254.73342033 -0.10719515 264.60178052 -0.10940888 274.47021103 -0.12693596 C282.87106508 -0.14167186 291.27177744 -0.14227524 299.67262875 -0.12486505 C303.95568718 -0.11636406 308.23849266 -0.11418335 312.52153778 -0.1295166 C316.44852936 -0.14340072 320.37505215 -0.13855322 324.30201687 -0.11927737 C325.71645643 -0.1155284 327.13093388 -0.1184073 328.54533957 -0.12888902 C344.20335778 -0.23660029 355.62859194 4.04499911 367.11306763 14.70018005 C377.03653735 25.18535561 379.82284043 36.96533422 379.76712036 51.02586365 C379.77741524 52.86184113 379.77741524 52.86184113 379.78791809 54.73490906 C379.80298591 58.06111675 379.80470905 61.38675949 379.79897571 64.71295881 C379.79586817 67.49667023 379.8019926 70.28033174 379.80801445 73.06403601 C379.82200901 79.62785227 379.82053695 86.19153818 379.80911255 92.75535583 C379.79759711 99.52095726 379.81177546 106.28616385 379.83850902 113.05171335 C379.86065322 118.87446292 379.86730749 124.69708838 379.86143261 130.51987708 C379.85806344 133.99192327 379.86047691 137.46371553 379.87768364 140.93572617 C379.89600085 144.79926397 379.88197909 148.66231267 379.86477661 152.52586365 C379.87444458 153.67396515 379.88411255 154.82206665 379.89407349 156.00495911 C379.88423935 157.05618958 379.87440521 158.10742004 379.86427307 159.19050598 C379.86406379 160.10299795 379.8638545 161.01548992 379.86363888 161.95563316 C379.19572213 165.20073535 377.9818346 166.41041981 375.36306763 168.38768005 C374.04306763 168.38768005 372.72306763 168.38768005 371.36306763 168.38768005 C371.36306763 173.66768005 371.36306763 178.94768005 371.36306763 184.38768005 C373.34306763 184.71768005 375.32306763 185.04768005 377.36306763 185.38768005 C380.47014356 190.04829395 379.73165228 194.84326517 379.73806763 200.32518005 C379.76255981 201.42281677 379.787052 202.52045349 379.81228638 203.65135193 C379.81615356 204.70773865 379.82002075 205.76412537 379.82400513 206.8525238 C379.8322229 207.81795105 379.84044067 208.7833783 379.84890747 209.77806091 C379.21943052 213.15920622 378.09709271 214.35173589 375.36306763 216.38768005 C374.04306763 216.38768005 372.72306763 216.38768005 371.36306763 216.38768005 C371.36306763 221.66768005 371.36306763 226.94768005 371.36306763 232.38768005 C373.34306763 232.71768005 375.32306763 233.04768005 377.36306763 233.38768005 C379.49911071 236.59174468 379.6051567 237.38368753 379.55838013 241.0556488 C379.55193481 241.94832458 379.5454895 242.84100037 379.53884888 243.76072693 C379.52209106 244.68949646 379.50533325 245.61826599 379.48806763 246.57518005 C379.47904419 247.51555115 379.47002075 248.45592224 379.46072388 249.42478943 C379.43715819 251.74600973 379.40425879 254.06671649 379.36306763 256.38768005 C380.24043579 256.36673279 381.11780396 256.34578552 382.02175903 256.32420349 C385.29823446 256.25575405 388.57394275 256.20574954 391.8508606 256.16795349 C393.26504558 256.14792163 394.67914859 256.12068757 396.0930481 256.08592224 C398.13378181 256.03702517 400.17341452 256.01462883 402.21463013 255.99705505 C403.44004517 255.97610779 404.66546021 255.95516052 405.92800903 255.93357849 C411.3166914 256.64594162 414.14899022 259.02677927 417.7048645 263.01268005 C419.94552749 267.57318139 419.93882591 271.37086582 419.89431763 276.38768005 C419.89814453 277.3415863 419.90197144 278.29549255 419.90591431 279.27830505 C419.90862799 281.2887325 419.901305 283.29919558 419.884552 285.30955505 C419.86313472 288.37806792 419.88437229 291.44423958 419.90994263 294.51268005 C419.90729925 296.47101853 419.90217408 298.42935555 419.89431763 300.38768005 C419.90241455 301.3003363 419.91051147 302.21299255 419.91885376 303.15330505 C419.83751163 308.70847878 419.20506236 312.0810571 415.36306763 316.38768005 C410.27086487 320.93050082 405.86332854 320.97659921 399.36306763 320.91893005 C397.93220825 320.92467041 397.93220825 320.92467041 396.47244263 320.93052673 C394.46201518 320.93324042 392.4515521 320.92591742 390.44119263 320.90916443 C387.37267976 320.88774714 384.3065081 320.90898472 381.23806763 320.93455505 C379.27972915 320.93191168 377.32139213 320.92678651 375.36306763 320.91893005 C373.99408325 320.93107544 373.99408325 320.93107544 372.59744263 320.94346619 C367.06056232 320.86239192 363.67347836 320.20980207 359.36306763 316.38768005 C358.70306763 315.06768005 358.04306763 313.74768005 357.36306763 312.38768005 C348.78306763 312.38768005 340.20306763 312.38768005 331.36306763 312.38768005 C331.36306763 322.94768005 331.36306763 333.50768005 331.36306763 344.38768005 C334.49291138 344.3412738 337.62275513 344.29486755 340.84744263 344.24705505 C343.87900165 344.21585947 346.91054279 344.19157165 349.94216919 344.16795349 C352.04902144 344.14783879 354.15581788 344.12054338 356.26248169 344.08592224 C359.2909421 344.03739837 362.31866441 344.01470989 365.34744263 343.99705505 C366.76014435 343.96608734 366.76014435 343.96608734 368.2013855 343.93449402 C369.08199646 343.93419189 369.96260742 343.93388977 370.86990356 343.93357849 C371.64267639 343.92469604 372.41544922 343.9158136 373.2116394 343.90666199 C376.29572392 344.5962041 377.46933037 345.89709015 379.36306763 348.38768005 C379.84408569 350.84281921 379.84408569 350.84281921 379.81716919 353.61521912 C379.816716 355.17638458 379.816716 355.17638458 379.81625366 356.76908875 C379.78528595 358.44427582 379.78528595 358.44427582 379.75369263 360.15330505 C379.74803284 361.3018396 379.74237305 362.45037415 379.73654175 363.63371277 C379.71415094 367.3021258 379.66394704 370.96956222 379.61306763 374.63768005 C379.59300624 377.12464512 379.57475484 379.61162549 379.55838013 382.09861755 C379.51427718 388.19530494 379.44733712 394.29142273 379.36306763 400.38768005 C380.30631897 400.37879761 381.24957031 400.36991516 382.22140503 400.36076355 C391.10864224 400.27969314 399.99580447 400.21972219 408.88332748 400.18043137 C413.45257726 400.15955241 418.02152865 400.13122934 422.59060669 400.08592224 C426.99967635 400.04247517 431.40845893 400.01854527 435.81772614 400.00817108 C437.50028249 400.00077763 439.18282306 399.98633989 440.86525726 399.96475983 C443.22131864 399.93574002 445.57619236 399.93172331 447.93240356 399.93357849 C448.62867859 399.91919739 449.32495361 399.90481628 450.04232788 399.88999939 C453.22627524 399.91714378 455.11935714 400.2263175 457.7951355 401.99797058 C459.88015085 405.17577455 459.87057771 407.28555932 459.88064575 411.07713318 C459.89115967 412.07322098 459.89115967 412.07322098 459.90188599 413.08943176 C459.91947396 415.28302503 459.90783127 417.47532375 459.89431763 419.66893005 C459.8970149 421.20388535 459.90089929 422.73883898 459.90591431 424.27378845 C459.91181253 427.49518559 459.903246 430.71613921 459.884552 433.93748474 C459.86191525 438.03493952 459.87478467 442.13133732 459.89884186 446.22875214 C459.91342346 449.40330188 459.90863534 452.57760895 459.89833069 455.75216675 C459.8956893 457.26060108 459.89884048 458.76905851 459.9082489 460.27746582 C459.98685655 476.44134822 456.12122412 488.20539228 445.05056763 500.13768005 C433.88466235 510.70541183 421.60314439 512.8446175 406.72613525 512.77536011 C405.25762395 512.77953894 403.78911588 512.78501947 402.32061374 512.79167992 C398.30734929 512.80608125 394.29429113 512.80190653 390.28101563 512.79451311 C385.94416031 512.78977052 381.60734892 512.80230092 377.27050781 512.81253052 C368.78278508 512.82970259 360.29513643 512.83056182 351.80740084 512.82531761 C344.90651394 512.82127166 338.00564889 512.82272452 331.10476303 512.82806587 C330.121554 512.82881429 329.13834498 512.82956272 328.12534174 512.83033382 C326.12777385 512.83186534 324.13020596 512.83340369 322.13263808 512.83494879 C303.41130427 512.84866811 284.69001227 512.84324016 265.96867941 512.83176357 C248.85401829 512.82183213 231.73946529 512.83477135 214.62482084 512.85869776 C197.03692206 512.88309989 179.44907362 512.89269387 161.86115825 512.88604504 C151.99271492 512.88255526 142.12435473 512.88476899 132.25592422 512.90229607 C123.85507018 512.91703197 115.45435782 512.91763535 107.05350651 512.90022516 C102.77044807 512.89172416 98.48764259 512.88954346 94.20459747 512.90487671 C90.2776059 512.91876082 86.3510831 512.91391333 82.42411838 512.89463747 C81.00967882 512.89088851 79.59520138 512.89376741 78.18079568 512.90424912 C62.52277748 513.0119604 51.09754331 508.730361 39.61306763 498.07518005 C29.69824961 487.59914592 26.89253927 475.79301816 26.92947388 461.73924255 C26.92423203 460.5642923 26.91899017 459.38934204 26.91358948 458.17878723 C26.90720277 455.71310717 26.90846246 453.2473965 26.91702271 450.78172302 C26.92559026 447.00269625 26.89662985 443.22515385 26.86502075 439.4462738 C26.86341 437.04393051 26.86398386 434.64158453 26.86697388 432.23924255 C26.8557399 431.11007416 26.84450592 429.98090576 26.83293152 428.81752014 C26.84231247 427.76897858 26.85169342 426.72043701 26.86135864 425.64012146 C26.86152481 424.71986176 26.86169098 423.79960205 26.86186218 422.85145569 C27.52661792 419.58371585 28.72473161 418.37563624 31.36306763 416.38768005 C32.68306763 416.38768005 34.00306763 416.38768005 35.36306763 416.38768005 C35.36306763 409.78768005 35.36306763 403.18768005 35.36306763 396.38768005 C33.67181763 397.04768005 31.98056763 397.70768005 30.23806763 398.38768005 C17.76818836 402.22982487 1.46524175 402.58687242 -10.63693237 397.38768005 C-11.23135132 397.14018005 -11.82577026 396.89268005 -12.4382019 396.63768005 C-30.63721686 388.89761167 -41.38017437 377.21394421 -49.59396362 359.1884613 C-55.04733221 344.54402207 -55.01708092 325.71686613 -48.63693237 311.38768005 C-48.27470581 310.51498474 -47.91247925 309.64228943 -47.53927612 308.7431488 C-40.54677216 293.31223328 -27.11663646 281.2318021 -11.39620972 275.19358826 C0.77032139 270.93820134 14.79654967 270.87437646 27.36306763 273.38768005 C27.36306763 241.37768005 27.36306763 209.36768005 27.36306763 176.38768005 C2.53135107 176.54600114 2.53135107 176.54600114 -22.30001831 176.74803162 C-27.10617065 176.76609802 -27.10617065 176.76609802 -29.35720825 176.76945496 C-30.9270786 176.77559139 -32.49693026 176.78964783 -34.06668091 176.8099823 C-36.44687573 176.83926993 -38.82592025 176.8433041 -41.20626831 176.84178162 C-41.90387142 176.85617405 -42.60147453 176.87056648 -43.32021713 176.88539505 C-46.48620246 176.85829237 -48.28116559 176.66317866 -50.81557846 174.7005806 C-53.04942943 171.86385837 -53.13929842 170.47778542 -53.14486694 166.9002533 C-53.16178589 165.22677322 -53.16178589 165.22677322 -53.17904663 163.51948547 C-53.17094971 162.29972015 -53.16285278 161.07995483 -53.1545105 159.82322693 C-53.16151978 158.53493988 -53.16852905 157.24665283 -53.17575073 155.91932678 C-53.19399076 152.38565979 -53.18691032 148.8524599 -53.17423439 145.31878471 C-53.16409283 141.61147191 -53.17350487 137.90419857 -53.17977905 134.19688416 C-53.1870594 127.9625585 -53.17746534 121.72842225 -53.15841675 115.49412537 C-53.13672342 108.31186227 -53.14364241 101.13005475 -53.16572237 93.94780302 C-53.18395701 87.76665493 -53.18639329 81.58564299 -53.17596769 75.40447664 C-53.16976693 71.71971986 -53.1688003 68.035176 -53.18211365 64.35043335 C-53.19596255 60.22911807 -53.17669207 56.10856838 -53.1545105 51.98728943 C-53.16260742 50.78371796 -53.17070435 49.58014648 -53.17904663 48.34010315 C-53.03628372 33.93366876 -48.05081161 23.12106522 -38.32443237 12.63768005 C-27.1585271 2.06994827 -14.87700913 -0.06925739 0 0 Z " fill="#F4F6FE" transform="translate(52.636932373046875,-0.3876800537109375)"/>
<path d="M0 0 C2.19921875 1.39453125 2.19921875 1.39453125 4 4 C4.49290171 7.42903017 4.37581404 10.79495283 4.25 14.25 C4.23195313 15.18585938 4.21390625 16.12171875 4.1953125 17.0859375 C4.14825673 19.39167015 4.08253713 21.69530945 4 24 C4.87736816 23.97905273 5.75473633 23.95810547 6.65869141 23.93652344 C9.93516683 23.868074 13.21087512 23.81806949 16.48779297 23.78027344 C17.90197795 23.76024157 19.31608097 23.73300752 20.72998047 23.69824219 C22.77071419 23.64934511 24.8103469 23.62694877 26.8515625 23.609375 C28.68968506 23.5779541 28.68968506 23.5779541 30.56494141 23.54589844 C35.95362378 24.25826157 38.78592259 26.63909922 42.34179688 30.625 C44.58245986 35.18550134 44.57575828 38.98318577 44.53125 44 C44.5350769 44.95390625 44.53890381 45.9078125 44.54284668 46.890625 C44.54556036 48.90105245 44.53823737 50.91151553 44.52148438 52.921875 C44.50006709 55.99038787 44.52130466 59.05655952 44.546875 62.125 C44.54423163 64.08333848 44.53910645 66.0416755 44.53125 68 C44.53934692 68.91265625 44.54744385 69.8253125 44.55578613 70.765625 C44.474444 76.32079872 43.84199474 79.69337704 40 84 C34.90779724 88.54282076 30.50026092 88.58891916 24 88.53125 C22.56914063 88.53699036 22.56914063 88.53699036 21.109375 88.54284668 C19.09894755 88.54556036 17.08848447 88.53823737 15.078125 88.52148438 C12.00961213 88.50006709 8.94344048 88.52130466 5.875 88.546875 C3.91666152 88.54423163 1.9583245 88.53910645 0 88.53125 C-0.91265625 88.53934692 -1.8253125 88.54744385 -2.765625 88.55578613 C-8.30250531 88.47471187 -11.68958927 87.82212201 -16 84 C-16.66 82.68 -17.32 81.36 -18 80 C-26.58 80 -35.16 80 -44 80 C-44 90.56 -44 101.12 -44 112 C-39.30523437 111.93039062 -39.30523437 111.93039062 -34.515625 111.859375 C-31.48406598 111.82817941 -28.45252484 111.80389159 -25.42089844 111.78027344 C-23.31404618 111.76015874 -21.20724975 111.73286333 -19.10058594 111.69824219 C-16.07212553 111.64971832 -13.04440322 111.62702984 -10.015625 111.609375 C-8.60292328 111.57840729 -8.60292328 111.57840729 -7.16168213 111.54681396 C-6.28107117 111.54651184 -5.40046021 111.54620972 -4.49316406 111.54589844 C-3.72039124 111.53701599 -2.94761841 111.52813354 -2.15142822 111.51898193 C0.93265629 112.20852405 2.10626274 113.5094101 4 116 C4.48101807 118.45513916 4.48101807 118.45513916 4.45410156 121.22753906 C4.45364838 122.78870453 4.45364838 122.78870453 4.45318604 124.38140869 C4.43254089 125.49820007 4.41189575 126.61499146 4.390625 127.765625 C4.38496521 128.91415955 4.37930542 130.06269409 4.37347412 131.24603271 C4.35108331 134.91444574 4.30087942 138.58188217 4.25 142.25 C4.22993861 144.73696506 4.21168722 147.22394543 4.1953125 149.7109375 C4.15120955 155.80762489 4.08426949 161.90374267 4 168 C4.94325134 167.99111755 5.88650269 167.98223511 6.8583374 167.9730835 C15.74557461 167.89201309 24.63273684 167.83204213 33.52025986 167.79275131 C38.08950964 167.77187235 42.65846102 167.74354929 47.22753906 167.69824219 C51.63660873 167.65479512 56.0453913 167.63086522 60.45465851 167.62049103 C62.13721487 167.61309757 63.81975543 167.59865983 65.50218964 167.57707977 C67.85825101 167.54805997 70.21312473 167.54404325 72.56933594 167.54589844 C73.26561096 167.53151733 73.96188599 167.51713623 74.67926025 167.50231934 C77.86320762 167.52946373 79.75628951 167.83863744 82.43206787 169.61029053 C84.51708322 172.7880945 84.50751008 174.89787926 84.51757812 178.68945312 C84.52809204 179.68554092 84.52809204 179.68554092 84.53881836 180.70175171 C84.55640633 182.89534498 84.54476364 185.0876437 84.53125 187.28125 C84.53394728 188.8162053 84.53783166 190.35115892 84.54284668 191.8861084 C84.5487449 195.10750554 84.54017837 198.32845916 84.52148438 201.54980469 C84.49884762 205.64725947 84.51171705 209.74365726 84.53577423 213.84107208 C84.55035583 217.01562182 84.54556771 220.1899289 84.53526306 223.36448669 C84.53262167 224.87292103 84.53577286 226.38137846 84.54518127 227.88978577 C84.62378893 244.05366817 80.75815649 255.81771222 69.6875 267.75 C58.52159472 278.31773178 46.24007676 280.45693744 31.36306763 280.38768005 C29.89455633 280.39185889 28.42604826 280.39733941 26.95754611 280.40399987 C22.94428166 280.4184012 18.9312235 280.41422647 14.91794801 280.40683305 C10.58109268 280.40209047 6.24428129 280.41462087 1.90744019 280.42485046 C-6.58028255 280.44202254 -15.0679312 280.44288177 -23.55566679 280.43763756 C-30.45655369 280.43359161 -37.35741874 280.43504447 -44.2583046 280.44038582 C-45.24151362 280.44113424 -46.22472265 280.44188266 -47.23772589 280.44265376 C-49.23529378 280.44418529 -51.23286167 280.44572363 -53.23042955 280.44726873 C-71.95176336 280.46098806 -90.67305536 280.45556011 -109.39438821 280.44408352 C-126.50904934 280.43415207 -143.62360234 280.4470913 -160.73824678 280.47101771 C-178.32614556 280.49541984 -195.91399401 280.50501382 -213.50190938 280.49836498 C-223.37035271 280.4948752 -233.2387129 280.49708893 -243.1071434 280.51461601 C-251.50799745 280.52935191 -259.90870981 280.52995529 -268.30956112 280.5125451 C-272.59261956 280.50404411 -276.87542504 280.5018634 -281.15847015 280.51719666 C-285.08546173 280.53108077 -289.01198453 280.52623328 -292.93894924 280.50695742 C-294.3533888 280.50320845 -295.76786625 280.50608735 -297.18227194 280.51656907 C-312.84029015 280.62428034 -324.26552431 276.34268094 -335.75 265.6875 C-345.66481802 255.21146587 -348.47052836 243.40533811 -348.43359375 229.3515625 C-348.4388356 228.17661224 -348.44407745 227.00166199 -348.44947815 225.79110718 C-348.45586486 223.32542711 -348.45460517 220.85971644 -348.44604492 218.39404297 C-348.43747737 214.6150162 -348.46643778 210.83747379 -348.49804688 207.05859375 C-348.49965763 204.65625045 -348.49908377 202.25390448 -348.49609375 199.8515625 C-348.50732773 198.7223941 -348.51856171 197.59322571 -348.53013611 196.42984009 C-348.52075516 195.38129852 -348.51137421 194.33275696 -348.50170898 193.25244141 C-348.50154282 192.3321817 -348.50137665 191.411922 -348.50120544 190.46377563 C-347.84544044 187.24023154 -346.53273452 186.03056245 -344 184 C-341.74609375 183.6875 -341.74609375 183.6875 -339.4375 184 C-338.67308594 184.0825 -337.90867187 184.165 -337.12109375 184.25 C-334.30523235 185.2456637 -333.55687221 186.4781481 -332 189 C-331.63491821 191.26049805 -331.63491821 191.26049805 -331.64697266 193.76171875 C-331.64331696 194.70370117 -331.63966125 195.64568359 -331.63589478 196.61621094 C-331.64519012 197.62973633 -331.65448547 198.64326172 -331.6640625 199.6875 C-331.6515391 201.85286752 -331.63850151 204.01823211 -331.625 206.18359375 C-331.62108838 209.58230166 -331.62491641 212.98071528 -331.63964844 216.37939453 C-332.08738315 233.91162395 -332.08738315 233.91162395 -326 250 C-325.43019409 250.91543579 -325.43019409 250.91543579 -324.84887695 251.84936523 C-320.54230478 257.73842388 -313.85361535 261.0577145 -307 263 C-296.12327389 264.34193374 -287.83317732 261.56471947 -278.625 255.9375 C-272.61804713 249.21543369 -268.87769782 240.75830221 -268.87402344 231.77197266 C-268.87021667 230.48698883 -268.86640991 229.202005 -268.86248779 227.87808228 C-268.862197 226.84839262 -268.862197 226.84839262 -268.86190033 225.79790115 C-268.85847889 222.9068709 -268.83711014 220.01606435 -268.81666946 217.12511253 C-268.77867663 211.74451081 -268.74738522 206.3641497 -268.74951172 200.98339844 C-268.75029942 197.23838721 -268.72691383 193.49419769 -268.6876297 189.74940109 C-268.6771781 188.32453482 -268.67563961 186.8995736 -268.68328094 185.47468948 C-268.69291741 183.47871113 -268.66892666 181.48265676 -268.64355469 179.48681641 C-268.63990906 178.35225006 -268.63626343 177.21768372 -268.63250732 176.04873657 C-267.74675017 171.77931528 -266.62608423 170.44642905 -263 168 C-259.25458421 167.28052152 -255.57548785 167.33753364 -251.77148438 167.38476562 C-250.07068474 167.37644211 -250.07068474 167.37644211 -248.33552551 167.36795044 C-244.58783703 167.35614061 -240.84135392 167.38044509 -237.09375 167.40625 C-234.48970597 167.40796078 -231.88566021 167.40789575 -229.28161621 167.40612793 C-223.82415136 167.40618146 -218.36703318 167.42591377 -212.90966797 167.45800781 C-206.60603393 167.49489917 -200.30285387 167.50368302 -193.99912596 167.4967103 C-187.92767723 167.49039835 -181.85640873 167.50138591 -175.7849884 167.52067566 C-173.20458231 167.52771044 -170.62416249 167.53082962 -168.04374695 167.52998352 C-164.4384173 167.5317798 -160.83373368 167.55314854 -157.22851562 167.58007812 C-156.16031082 167.57714752 -155.09210602 167.57421692 -153.99153137 167.57119751 C-144.86816472 167.67641847 -144.86816472 167.67641847 -141 171 C-139.84589746 173.30820508 -139.8789703 174.60784276 -139.88647461 177.17431641 C-139.88655014 178.03505768 -139.88662567 178.89579895 -139.88670349 179.78262329 C-139.89186478 180.71287323 -139.89702606 181.64312317 -139.90234375 182.6015625 C-139.90446617 184.02896255 -139.90446617 184.02896255 -139.90663147 185.48519897 C-139.91223988 188.53183097 -139.92479381 191.57839013 -139.9375 194.625 C-139.94251392 196.68749894 -139.94707701 198.74999903 -139.95117188 200.8125 C-139.96136219 205.87505081 -139.98093598 210.93744363 -140 216 C-129.44 216 -118.88 216 -108 216 C-108 210.72 -108 205.44 -108 200 C-110.31 199.67 -112.62 199.34 -115 199 C-117.14453125 197.765625 -117.14453125 197.765625 -118.8125 196.25 C-119.65748047 195.51523437 -119.65748047 195.51523437 -120.51953125 194.765625 C-124.53896919 189.97199453 -124.32041564 184.69719911 -124.3359375 178.75390625 C-124.3459227 177.42080666 -124.3459227 177.42080666 -124.35610962 176.06077576 C-124.36621119 174.18563907 -124.37092741 172.31046661 -124.37060547 170.43530273 C-124.37498026 167.57540419 -124.41132987 164.71704784 -124.44921875 161.85742188 C-124.45508722 160.03125525 -124.45905641 158.20508133 -124.4609375 156.37890625 C-124.47530853 155.52873428 -124.48967957 154.67856232 -124.50448608 153.80262756 C-124.46297155 148.37648797 -123.59681793 145.30951922 -120 141 C-114.5749223 136.22076489 -111.12882608 135.83156224 -104.046875 135.796875 C-103.15389709 135.79117493 -102.26091919 135.78547485 -101.34088135 135.77960205 C-99.44780667 135.77014514 -97.55471548 135.76361533 -95.66162109 135.75976562 C-92.77542024 135.75008526 -89.88993911 135.71907909 -87.00390625 135.6875 C-85.16406673 135.68096736 -83.32422211 135.67571791 -81.484375 135.671875 C-80.62479187 135.6595282 -79.76520874 135.6471814 -78.87957764 135.63446045 C-73.13521605 135.65564057 -68.73049154 136.45110885 -64.35546875 140.53515625 C-56.76814193 150.45704517 -60 149.45816079 -60 168 C-44.16 168 -28.32 168 -12 168 C-12 154.8 -12 141.6 -12 128 C-23.90686341 128.15792648 -23.90686341 128.15792648 -35.81298828 128.36035156 C-37.31541808 128.37204362 -38.81786064 128.38223423 -40.3203125 128.390625 C-41.08851318 128.41108887 -41.85671387 128.43155273 -42.64819336 128.45263672 C-47.91064399 128.45602638 -50.8033978 127.44453707 -55 124 C-58.50277644 120.11854503 -60.10386502 117.2183311 -60.17700195 111.9909668 C-60.18983719 111.18970871 -60.20267242 110.38845062 -60.21589661 109.56291199 C-60.22697701 108.26913383 -60.22697701 108.26913383 -60.23828125 106.94921875 C-60.246353 106.05765579 -60.25442474 105.16609283 -60.26274109 104.24751282 C-60.27656906 102.36042214 -60.28729697 100.47330658 -60.29516602 98.58618164 C-60.31237345 95.708662 -60.35626988 92.83229319 -60.40039062 89.95507812 C-60.41051855 88.1198001 -60.41903434 86.28451232 -60.42578125 84.44921875 C-60.44328934 83.59277267 -60.46079742 82.7363266 -60.47883606 81.85392761 C-60.4591608 76.40164429 -59.6222166 73.32804202 -56 69 C-51.19587162 64.76779167 -48.83007835 63.87465183 -42.4609375 63.90234375 C-41.15898437 63.90556641 -39.85703125 63.90878906 -38.515625 63.91210938 C-37.13541601 63.92046534 -35.75520768 63.92893029 -34.375 63.9375 C-32.98698074 63.94251499 -31.59895978 63.9470779 -30.2109375 63.95117188 C-26.80724868 63.96299024 -23.40364561 63.97946566 -20 64 C-20.04713135 62.74509766 -20.04713135 62.74509766 -20.09521484 61.46484375 C-20.19817776 58.32642985 -20.27302787 55.18888329 -20.32958984 52.04931641 C-20.37419788 50.03619878 -20.45048417 48.02386314 -20.52734375 46.01171875 C-20.6375574 38.70088029 -20.41026711 33.85077074 -15.49462891 28.22265625 C-14 27 -14 27 -12 27 C-12.02618408 26.35973877 -12.05236816 25.71947754 -12.0793457 25.05981445 C-12.18361281 22.14429498 -12.24841753 19.22916802 -12.3125 16.3125 C-12.35439453 15.30509766 -12.39628906 14.29769531 -12.43945312 13.25976562 C-12.56292496 5.77737256 -12.56292496 5.77737256 -9.703125 1.828125 C-6.16527482 -0.56452512 -4.18926692 -0.68551641 0 0 Z " fill="#033C59" transform="translate(428,232)"/>
<path d="M0 0 C1.4685113 -0.00417883 2.93701937 -0.00965936 4.40552151 -0.01631981 C8.41878597 -0.03072115 12.43184413 -0.02654642 16.44511962 -0.019153 C20.78197494 -0.01441041 25.11878633 -0.02694082 29.45562744 -0.03717041 C37.94335017 -0.05434249 46.43099883 -0.05520171 54.91873442 -0.04995751 C61.81962131 -0.04591156 68.72048636 -0.04736441 75.62137222 -0.05270576 C76.60458125 -0.05345419 77.58779028 -0.05420261 78.60079352 -0.05497371 C80.59836141 -0.05650523 82.59592929 -0.05804358 84.59349717 -0.05958868 C103.31483099 -0.073308 122.03612298 -0.06788005 140.75745584 -0.05640347 C157.87211696 -0.04647202 174.98666996 -0.05941125 192.10131441 -0.08333766 C209.68921319 -0.10773978 227.27706164 -0.11733377 244.864977 -0.11068493 C254.73342033 -0.10719515 264.60178052 -0.10940888 274.47021103 -0.12693596 C282.87106508 -0.14167186 291.27177744 -0.14227524 299.67262875 -0.12486505 C303.95568718 -0.11636406 308.23849266 -0.11418335 312.52153778 -0.1295166 C316.44852936 -0.14340072 320.37505215 -0.13855322 324.30201687 -0.11927737 C325.71645643 -0.1155284 327.13093388 -0.1184073 328.54533957 -0.12888902 C344.20335778 -0.23660029 355.62859194 4.04499911 367.11306763 14.70018005 C377.03653735 25.18535561 379.82284043 36.96533422 379.76712036 51.02586365 C379.77741524 52.86184113 379.77741524 52.86184113 379.78791809 54.73490906 C379.80298591 58.06111675 379.80470905 61.38675949 379.79897571 64.71295881 C379.79586817 67.49667023 379.8019926 70.28033174 379.80801445 73.06403601 C379.82200901 79.62785227 379.82053695 86.19153818 379.80911255 92.75535583 C379.79759711 99.52095726 379.81177546 106.28616385 379.83850902 113.05171335 C379.86065322 118.87446292 379.86730749 124.69708838 379.86143261 130.51987708 C379.85806344 133.99192327 379.86047691 137.46371553 379.87768364 140.93572617 C379.89600085 144.79926397 379.88197909 148.66231267 379.86477661 152.52586365 C379.87444458 153.67396515 379.88411255 154.82206665 379.89407349 156.00495911 C379.88423935 157.05618958 379.87440521 158.10742004 379.86427307 159.19050598 C379.86406379 160.10299795 379.8638545 161.01548992 379.86363888 161.95563316 C379.19881045 165.18573059 377.93688837 166.38441918 375.36306763 168.38768005 C371.60957301 168.85686688 369.32458309 168.91904386 365.98806763 167.07518005 C363.19266796 164.17226502 363.23725241 161.32468567 363.23176575 157.49385071 C363.22575348 155.98000542 363.22575348 155.98000542 363.21961975 154.43557739 C363.22014847 153.32906326 363.22067719 152.22254913 363.22122192 151.08250427 C363.21601028 149.33325905 363.21601028 149.33325905 363.21069336 147.54867554 C363.20333215 145.01141208 363.19798872 142.47414217 363.19440269 139.93687057 C363.18724352 135.91831292 363.17193264 131.89987775 363.15306091 127.88136292 C363.14672342 126.50417143 363.1403978 125.12697988 363.13408375 123.74978828 C363.13091794 123.06003733 363.12775213 122.37028637 363.12449038 121.65963387 C363.08246941 112.30597758 363.04946465 102.95236191 363.03713989 93.59861755 C363.02873875 87.28745367 363.00617031 80.97650786 362.96778423 74.66545308 C362.94808731 71.32888653 362.93782049 67.99292998 362.94061852 64.65626144 C362.94297581 60.92691697 362.92076917 57.19844892 362.89309692 53.46922302 C362.89969833 52.37485428 362.90629974 51.28048553 362.9131012 50.1529541 C362.80099007 40.9256557 360.03668529 33.53728703 354.33572388 26.24705505 C347.72076095 20.01196128 338.93272468 17.26094601 330.01576519 17.26463223 C328.95034109 17.26264118 327.88491699 17.26065013 326.78720731 17.25859874 C325.62281418 17.26151159 324.45842105 17.26442443 323.25874329 17.26742554 C321.39636055 17.2661439 321.39636055 17.2661439 319.49635392 17.26483637 C316.0529526 17.26347386 312.60960809 17.26659988 309.16621363 17.27161443 C305.45188373 17.27593218 301.73755558 17.27447157 298.02322388 17.27371216 C291.58882926 17.27318777 285.15444478 17.27632575 278.72005272 17.28195 C269.4169979 17.29007643 260.11394798 17.29268139 250.81089 17.29393799 C235.71735854 17.29612671 220.62383248 17.30278192 205.53030396 17.3122406 C190.86819486 17.32141937 176.20608722 17.32849793 161.54397583 17.33274841 C160.64022979 17.33301114 159.73648374 17.33327386 158.80535146 17.33354454 C154.27153105 17.33484958 149.73771063 17.33611329 145.2038902 17.33735645 C107.59027886 17.34772345 69.97667367 17.36533689 32.36306763 17.38768005 C32.77588989 18.00401306 33.18871216 18.62034607 33.61404419 19.25535583 C34.15512817 20.06472595 34.69621216 20.87409607 35.25369263 21.70799255 C35.79026489 22.50995056 36.32683716 23.31190857 36.87966919 24.13816833 C42.8714128 33.22439704 43.68079604 43.02766219 43.56752014 53.69204712 C43.56555132 54.66768673 43.5635825 55.64332634 43.56155401 56.64853078 C43.55287206 59.88485088 43.53001303 63.12091253 43.50735474 66.35716248 C43.49863621 68.69059904 43.49096329 71.02403971 43.48425293 73.35748291 C43.46868955 78.36595949 43.44784997 83.37437685 43.42350578 88.38281822 C43.38715824 96.30405857 43.37553571 104.22523234 43.37004089 112.14654541 C43.36897721 113.49892925 43.36790187 114.85131308 43.36681503 116.20369691 C43.36520047 118.25240957 43.36361252 120.30112224 43.36209462 122.34983497 C43.356339 130.05410409 43.3482805 137.75836822 43.33694458 145.46263123 C43.33591878 146.16607854 43.33489297 146.86952586 43.33383609 147.59428976 C43.31614423 159.00823988 43.26543306 170.42184508 43.2044633 181.83563539 C43.14270934 193.57468527 43.12295091 205.31330212 43.1404019 217.05250245 C43.14818465 223.63602028 43.13589384 230.21814957 43.0759716 236.80142784 C43.01992383 242.98842905 43.01492443 249.17336148 43.04906845 255.36050224 C43.05246668 257.6292977 43.03704778 259.89821185 43.0013485 262.16672897 C42.34593906 273.98222316 42.34593906 273.98222316 46.75012398 284.40235329 C49.53900366 286.431356 52.28029011 287.86458878 55.36306763 289.38768005 C61.82277672 295.30433663 66.46599114 302.58134871 70.36306763 310.38768005 C70.36306763 311.04768005 70.36306763 311.70768005 70.36306763 312.38768005 C70.93806503 312.38491467 71.51306244 312.3821493 72.10548401 312.37930012 C86.11984979 312.31294251 100.13419192 312.26335203 114.14868164 312.23224354 C120.92609309 312.21679843 127.70339944 312.19575429 134.48074341 312.16136169 C141.02298588 312.12817808 147.56516024 312.11081918 154.10748291 312.10304832 C156.60170204 312.09751141 159.09591529 312.08669919 161.59008789 312.07048988 C165.08746173 312.04866779 168.5843865 312.04571521 172.08181763 312.04710388 C173.6236245 312.03092514 173.6236245 312.03092514 175.19657898 312.01441956 C182.96677264 312.0477366 189.58760001 313.24593243 195.61306763 318.57518005 C196.23697388 319.10498474 196.86088013 319.63478943 197.50369263 320.1806488 C204.0889314 327.99716121 203.98952971 335.70263793 203.884552 345.45042419 C203.86314504 347.81662366 203.88439232 350.17977738 203.90994263 352.54588318 C203.92903274 361.92085911 203.41060066 369.48724727 197.24978638 376.9462738 C196.52404419 377.56631287 195.798302 378.18635193 195.05056763 378.82518005 C194.33255981 379.46326599 193.614552 380.10135193 192.87478638 380.7587738 C186.92726924 384.61587278 180.64639977 384.70577762 173.77322388 384.72361755 C172.86986801 384.73027435 171.96651215 384.73693115 171.03578186 384.74378967 C169.13391136 384.75387024 167.23200583 384.75860812 165.33010864 384.75828552 C162.43750268 384.762662 159.54642022 384.79903906 156.65408325 384.8368988 C154.79796863 384.84276748 152.94184683 384.84673653 151.08572388 384.84861755 C150.23027481 384.86298859 149.37482574 384.87735962 148.49345398 384.89216614 C141.42444376 384.83896953 136.24319004 382.90207264 130.90213013 378.23924255 C125.76278229 372.26081752 123.36306763 368.47985951 123.36306763 360.38768005 C105.87306763 360.38768005 88.38306763 360.38768005 70.36306763 360.38768005 C69.70306763 362.36768005 69.04306763 364.34768005 68.36306763 366.38768005 C58.94446356 382.56575643 44.42668304 394.72390429 26.18338013 399.7665863 C14.41245289 401.68026466 0.47264811 402.16044612 -10.63693237 397.38768005 C-11.23135132 397.14018005 -11.82577026 396.89268005 -12.4382019 396.63768005 C-30.63721686 388.89761167 -41.38017437 377.21394421 -49.59396362 359.1884613 C-55.04733221 344.54402207 -55.01708092 325.71686613 -48.63693237 311.38768005 C-48.27470581 310.51498474 -47.91247925 309.64228943 -47.53927612 308.7431488 C-40.54677216 293.31223328 -27.11663646 281.2318021 -11.39620972 275.19358826 C0.77032139 270.93820134 14.79654967 270.87437646 27.36306763 273.38768005 C27.36306763 241.37768005 27.36306763 209.36768005 27.36306763 176.38768005 C2.53135107 176.54600114 2.53135107 176.54600114 -22.30001831 176.74803162 C-27.10617065 176.76609802 -27.10617065 176.76609802 -29.35720825 176.76945496 C-30.9270786 176.77559139 -32.49693026 176.78964783 -34.06668091 176.8099823 C-36.44687573 176.83926993 -38.82592025 176.8433041 -41.20626831 176.84178162 C-41.90387142 176.85617405 -42.60147453 176.87056648 -43.32021713 176.88539505 C-46.48620246 176.85829237 -48.28116559 176.66317866 -50.81557846 174.7005806 C-53.04942943 171.86385837 -53.13929842 170.47778542 -53.14486694 166.9002533 C-53.16178589 165.22677322 -53.16178589 165.22677322 -53.17904663 163.51948547 C-53.17094971 162.29972015 -53.16285278 161.07995483 -53.1545105 159.82322693 C-53.16151978 158.53493988 -53.16852905 157.24665283 -53.17575073 155.91932678 C-53.19399076 152.38565979 -53.18691032 148.8524599 -53.17423439 145.31878471 C-53.16409283 141.61147191 -53.17350487 137.90419857 -53.17977905 134.19688416 C-53.1870594 127.9625585 -53.17746534 121.72842225 -53.15841675 115.49412537 C-53.13672342 108.31186227 -53.14364241 101.13005475 -53.16572237 93.94780302 C-53.18395701 87.76665493 -53.18639329 81.58564299 -53.17596769 75.40447664 C-53.16976693 71.71971986 -53.1688003 68.035176 -53.18211365 64.35043335 C-53.19596255 60.22911807 -53.17669207 56.10856838 -53.1545105 51.98728943 C-53.16260742 50.78371796 -53.17070435 49.58014648 -53.17904663 48.34010315 C-53.03628372 33.93366876 -48.05081161 23.12106522 -38.32443237 12.63768005 C-27.1585271 2.06994827 -14.87700913 -0.06925739 0 0 Z " fill="#033C59" transform="translate(52.636932373046875,-0.3876800537109375)"/>
<path d="M0 0 C31.68 0 63.36 0 96 0 C96.33 11.88 96.66 23.76 97 36 C99.80569424 41.61138848 101.52707905 44.26353952 107 47 C109.99212009 47.12376531 112.95998821 47.18846468 115.953125 47.203125 C116.84610291 47.20882507 117.73908081 47.21452515 118.65911865 47.22039795 C120.55219333 47.22985486 122.44528452 47.23638467 124.33837891 47.24023438 C127.22457976 47.24991474 130.11006089 47.28092091 132.99609375 47.3125 C134.83593327 47.31903264 136.67577789 47.32428209 138.515625 47.328125 C139.37520813 47.3404718 140.23479126 47.3528186 141.12042236 47.36553955 C146.16969717 47.34692229 149.62663992 46.80343595 154 44 C157.76877875 39.92564459 159.07208003 36.8119194 159.31640625 31.33203125 C159.35830078 30.43935547 159.40019531 29.54667969 159.44335938 28.62695312 C159.48267578 27.69818359 159.52199219 26.76941406 159.5625 25.8125 C159.62727539 24.40194336 159.62727539 24.40194336 159.69335938 22.96289062 C159.79938665 20.64207146 159.90145029 18.32114675 160 16 C160.86165771 15.97812622 160.86165771 15.97812622 161.74072266 15.95581055 C164.36945696 15.88086275 166.99698552 15.78436006 169.625 15.6875 C170.52863281 15.66494141 171.43226563 15.64238281 172.36328125 15.61914062 C178.82611596 15.35968376 183.50194742 14.49805258 188.25 9.75 C190.50217188 6.49870605 190.50217188 6.49870605 192 0 C234.24 0 276.48 0 320 0 C320 61.79777487 320 61.79777487 310.9453125 71.46875 C304.69299778 76.39025074 296.83715943 80.12631377 288.85194111 80.12304783 C287.78004892 80.12503888 286.70815673 80.12702993 285.60378295 80.12908131 C284.4218913 80.12616847 283.23999964 80.12325563 282.02229309 80.12025452 C280.14409765 80.12153615 280.14409765 80.12153615 278.22795886 80.12284368 C274.74584382 80.12508519 271.26375941 80.12107204 267.78164828 80.11606562 C264.02910971 80.11175639 260.27657294 80.11320788 256.52403259 80.1139679 C250.02030336 80.11449283 243.51658415 80.11134921 237.01285744 80.10573006 C227.60950336 80.09761094 218.20615413 80.09499941 208.80279692 80.09374207 C193.54732085 80.0915522 178.29185012 80.08489387 163.03637695 80.07543945 C148.21508816 80.06626366 133.39380082 80.05918364 118.57250977 80.05493164 C117.65927729 80.05466892 116.74604481 80.05440619 115.80513863 80.05413551 C111.22382473 80.05283049 106.64251083 80.05156678 102.06119692 80.05032361 C64.04079421 80.03995302 26.02039746 80.02233646 -12 80 C-11.44533208 79.06560939 -10.89066416 78.13121878 -10.31918812 77.1685133 C-9.58676193 75.91611835 -8.85472 74.66349862 -8.1230011 73.41069031 C-7.5753921 72.491676 -7.5753921 72.491676 -7.01672029 71.55409575 C-1.30968615 61.72897498 -0.55296005 51.30194947 -0.48828125 40.13671875 C-0.47164429 39.10792603 -0.45500732 38.0791333 -0.43786621 37.01916504 C-0.38081824 33.24214301 -0.34800362 29.46478598 -0.3125 25.6875 C-0.209375 17.210625 -0.10625 8.73375 0 0 Z " fill="#CBD2EA" transform="translate(176,416)"/>
<path d="M0 0 C14.01580946 -0.54996636 26.1239275 4.83377307 36.47265625 14.12109375 C40.90474175 18.71006723 43.50972207 23.90387909 46.10986328 29.66162109 C46.56208252 30.65669678 46.56208252 30.65669678 47.0234375 31.671875 C47.28036377 32.26395752 47.53729004 32.85604004 47.80200195 33.46606445 C49.35196842 36.10459014 50.30327864 37.39630824 52.84765625 39.24609375 C56.60580467 39.86265743 60.34553093 39.77834364 64.14624023 39.74438477 C65.87608154 39.75266296 65.87608154 39.75266296 67.64086914 39.7611084 C70.14591709 39.77043778 72.65101247 39.7705259 75.15606499 39.76251411 C79.11910726 39.74991941 83.08170739 39.7606398 87.04469299 39.77854919 C94.74291648 39.80936118 102.44100848 39.81087082 110.13928223 39.80889893 C119.93457127 39.80750589 129.72975901 39.81787469 139.52497345 39.85747665 C144.09688987 39.87480125 148.6684198 39.86781207 153.24034119 39.8563385 C155.63345558 39.86248174 158.02656818 39.86939315 160.41967773 39.87719727 C161.50815506 39.869478 162.59663239 39.86175873 163.71809387 39.85380554 C173.0060275 39.91641999 173.0060275 39.91641999 176.84765625 43.24609375 C178.94580042 47.44238209 178.07454152 52.89644224 178.08789062 57.51245117 C178.09757048 59.54062314 178.12858157 61.56777017 178.16015625 63.59570312 C178.16789062 65.5205957 178.16789062 65.5205957 178.17578125 67.484375 C178.18512695 68.66040283 178.19447266 69.83643066 178.20410156 71.0480957 C177.80998564 74.58407134 177.02401236 76.45233843 174.84765625 79.24609375 C171.83275068 80.25106227 169.80583933 80.34944678 166.66015625 80.30859375 C165.30857422 80.29505859 165.30857422 80.29505859 163.9296875 80.28125 C163.24261719 80.26964844 162.55554688 80.25804687 161.84765625 80.24609375 C161.821875 79.4984375 161.79609375 78.75078125 161.76953125 77.98046875 C161.50537273 71.96645965 161.50537273 71.96645965 159.16015625 66.55859375 C156.09002814 64.81608861 154.32553299 64.66644763 150.84765625 65.24609375 C148.31084535 66.44434545 148.31084535 66.44434545 146.84765625 69.24609375 C146.22091264 72.90648709 145.97554208 76.53740469 145.84765625 80.24609375 C144.09843485 80.32752302 142.34811083 80.38547916 140.59765625 80.43359375 C139.623125 80.46839844 138.64859375 80.50320313 137.64453125 80.5390625 C134.41988707 80.20128553 133.13974828 79.50138614 130.84765625 77.24609375 C129.42709182 72.98440046 129.46303777 68.74521692 129.2265625 64.27734375 C129.05554069 61.07343902 129.05554069 61.07343902 126.84765625 58.24609375 C123.37657173 57.08906558 120.62422149 57.09059987 116.96118164 57.05322266 C115.91677666 57.04095642 115.91677666 57.04095642 114.85127258 57.02844238 C112.54929457 57.00364737 110.24737783 56.98709068 107.9453125 56.97265625 C107.15871183 56.96733257 106.37211117 56.9620089 105.56167412 56.9565239 C101.4009079 56.92982233 97.24017143 56.91043494 93.0793457 56.89599609 C89.63474082 56.88263702 86.19072556 56.85474517 82.74633789 56.81396484 C78.58662426 56.76471717 74.42744688 56.73988559 70.26745415 56.73276901 C68.68257224 56.72604786 67.0977027 56.71080318 65.51298714 56.6868782 C63.29586221 56.6553059 61.08081547 56.65517593 58.86352539 56.66259766 C57.60238419 56.6545108 56.34124298 56.64642395 55.04188538 56.63809204 C51.67558091 56.96571561 51.67558091 56.96571561 49.4750824 59.64877319 C48.05199621 61.91997365 46.94096543 64.00615587 45.97265625 66.49609375 C39.92305788 80.58067992 30.15131751 88.5009286 16.2421875 94.33984375 C4.92778086 98.62196829 -8.10365478 96.6713083 -18.93359375 92.0625 C-31.66514253 85.75036978 -38.9357974 76.12444255 -44.15234375 63.24609375 C-48.37718746 50.4302635 -46.55219059 36.56773993 -40.58984375 24.55859375 C-33.91557911 13.32030991 -23.86244477 5.24935662 -11.3359375 1.375 C-7.5651845 0.5791351 -3.83702121 0.29954441 0 0 Z " fill="#0073FD" transform="translate(62.15234375,287.75390625)"/>
<path d="M0 0 C7.25136236 4.72336447 11.80317668 11.68383301 14 20 C14.28532629 23.86893961 14.25260487 27.72714787 14.22705078 31.60498047 C14.22734283 32.76653152 14.22763489 33.92808258 14.22793579 35.12483215 C14.22654492 38.95569384 14.2109948 42.78635988 14.1953125 46.6171875 C14.19158151 49.27662485 14.18863653 51.93605143 14.18673706 54.5954895 C14.18053071 60.87457426 14.1641314 67.15358905 14.14403808 73.43264306 C14.11945514 81.28581109 14.10853469 89.13899057 14.09765625 96.9921875 C14.07819929 110.99484612 14.03813126 124.99735214 14 139 C-7.12 139 -28.24 139 -50 139 C-50.16065467 109.62250788 -50.16065467 109.62250788 -50.20101547 95.08444691 C-50.22315879 87.22994599 -50.25124649 79.37561547 -50.30175781 71.52124023 C-50.34173828 65.30139826 -50.36745938 59.08168503 -50.37635398 52.86171812 C-50.38154996 49.57092409 -50.39581144 46.2805822 -50.42292023 42.98988533 C-50.45203828 39.30822213 -50.4559523 35.62731682 -50.45410156 31.94555664 C-50.46848267 30.86517624 -50.48286377 29.78479584 -50.49768066 28.67167664 C-50.44296764 18.58554114 -46.99139014 10.33092785 -40 3 C-27.64099958 -7.00701829 -13.86602541 -7.71692163 0 0 Z " fill="#CBD2EA" transform="translate(66,21)"/>
<path d="M0 0 C0.33 0 0.66 0 1 0 C0.66815027 8.62809296 -2.76787557 17.4075805 -9.125 23.4375 C-18.11937411 29.85661078 -27.20206396 31.73810781 -38.05999756 31.60127258 C-39.94972774 31.60768077 -39.94972774 31.60768077 -41.87763429 31.61421841 C-45.33969915 31.62529721 -48.8009775 31.60554164 -52.26294231 31.58032811 C-56.00918556 31.55859346 -59.75538985 31.56605265 -63.50167847 31.56983948 C-69.9807956 31.57245232 -76.4596596 31.5568588 -82.93871307 31.52865028 C-92.30611676 31.48789316 -101.67339893 31.47498062 -111.04088166 31.46871033 C-126.24151641 31.45778623 -141.44201645 31.42456337 -156.64257812 31.37719727 C-171.40233693 31.33125276 -186.16205906 31.29588483 -200.921875 31.2746582 C-201.83274296 31.27334459 -202.74361093 31.27203097 -203.68208095 31.27067754 C-208.25195892 31.26415202 -212.82183713 31.25783356 -217.39171553 31.25161803 C-255.26123875 31.19984376 -293.13060886 31.11183003 -331 31 C-329.70966095 28.72840311 -328.41778598 26.45770375 -327.125 24.1875 C-326.76019531 23.54490234 -326.39539063 22.90230469 -326.01953125 22.24023438 C-324.41916099 19.43231202 -322.79357134 16.69035702 -321 14 C-318.87271172 13.63085651 -318.87271172 13.63085651 -316.17750645 13.63923645 C-315.15270634 13.6351134 -314.12790624 13.63099035 -313.07205158 13.62674236 C-311.93755084 13.63752725 -310.80305009 13.64831213 -309.63417053 13.65942383 C-308.43557496 13.65897725 -307.23697939 13.65853067 -306.00206274 13.65807056 C-302.66414121 13.65979955 -299.32676221 13.67503274 -295.98893631 13.69578028 C-292.3929718 13.71485075 -288.79699605 13.71660578 -285.20098877 13.7203064 C-278.964594 13.72898086 -272.72830525 13.74832352 -266.49196053 13.77450562 C-257.4632127 13.81213041 -248.43450434 13.83039006 -239.40569108 13.84330571 C-224.7423534 13.86452871 -210.07906514 13.89694491 -195.41577148 13.93847656 C-194.53755654 13.94096 -193.6593416 13.94344343 -192.75451409 13.94600213 C-185.63354404 13.96622374 -178.51257559 13.98698648 -171.39160728 14.00781059 C-165.18026166 14.02595917 -158.96891551 14.04390411 -152.75756836 14.06152344 C-151.88314955 14.06400782 -151.00873073 14.0664922 -150.10781438 14.06905186 C-135.51134226 14.11015612 -120.91486931 14.1394115 -106.31835455 14.16025448 C-97.3172368 14.17367998 -88.3162676 14.19776275 -79.3152191 14.23568892 C-73.13995101 14.26103005 -66.964717 14.27565308 -60.78940035 14.28196454 C-57.22954502 14.28598693 -53.66988184 14.29492854 -50.11009026 14.31724167 C-46.24291697 14.34138838 -42.37593489 14.34200036 -38.50868225 14.34057617 C-36.83704587 14.3567535 -36.83704587 14.3567535 -35.13163906 14.37325764 C-23.24689396 14.32651263 -12.37755724 11.51260225 -3.30078125 3.5 C-2.17169469 2.36120782 -1.08046344 1.18502441 0 0 Z " fill="#95A0C2" transform="translate(495,465)"/>
<path d="M0 0 C6.99773144 4.55815534 12.26180792 11.78309197 14 20 C15.03969668 30.86083149 12.79871745 40.64242323 5.828125 49.21484375 C-1.31771284 56.19272386 -9.69986807 58.94221636 -19.4375 59.375 C-28.11523406 59.18322687 -35.85653577 55.05292897 -42 49 C-48.68806629 40.16166849 -51.26035956 31.02814612 -50 20 C-47.32806335 10.58749588 -41.43838067 3.47634109 -33.34375 -1.7734375 C-22.21587872 -7.59702347 -10.67940631 -5.94345814 0 0 Z " fill="#033C5B" transform="translate(82,309)"/>
<path d="M0 0 C0.80232056 -0.00004028 1.60464111 -0.00008057 2.43127441 -0.00012207 C4.12239443 0.00522359 5.8135146 0.02276578 7.50439453 0.05175781 C10.08573724 0.09362006 12.66446867 0.09282315 15.24609375 0.0859375 C16.89324721 0.09643096 18.54038728 0.10936992 20.1875 0.125 C21.3392572 0.12530212 21.3392572 0.12530212 22.51428223 0.12561035 C27.02599744 0.22473308 30.01087988 0.78722566 33.59375 3.59375 C34.84331796 6.09288591 34.73417304 7.81015175 34.75488281 10.60668945 C34.76449036 11.65149979 34.7740979 12.69631012 34.78399658 13.77278137 C34.78824646 14.90608383 34.79249634 16.03938629 34.796875 17.20703125 C34.80257507 18.36873337 34.80827515 19.53043549 34.81414795 20.7273407 C34.82360796 23.18955573 34.83013589 25.65178348 34.83398438 28.11401367 C34.8436831 31.88027073 34.87469508 35.64598065 34.90625 39.41210938 C34.91278055 41.80208009 34.91803082 44.19205471 34.921875 46.58203125 C34.9342218 47.70926102 34.9465686 48.83649078 34.95928955 49.99787903 C34.95628845 51.05214584 34.95328735 52.10641266 34.95019531 53.19262695 C34.95566376 54.57923271 34.95566376 54.57923271 34.96124268 55.99385071 C34.51274027 59.16686932 33.50648083 61.03811993 31.59375 63.59375 C27.8240619 64.8503127 24.27657257 64.77550362 20.34765625 64.796875 C19.54013412 64.80257507 18.732612 64.80827515 17.90061951 64.81414795 C16.19344388 64.82358834 14.48625011 64.83012812 12.77905273 64.83398438 C10.16943625 64.8437009 7.56060393 64.8747369 4.95117188 64.90625 C3.29167134 64.91277933 1.63216518 64.91803007 -0.02734375 64.921875 C-0.80661728 64.9342218 -1.58589081 64.9465686 -2.38877869 64.95928955 C-5.62902164 64.94598287 -7.99008795 64.81914875 -10.86743164 63.26074219 C-13.60689591 60.29309789 -13.54530835 57.31605502 -13.59912109 53.46728516 C-13.62321548 51.90018295 -13.62321548 51.90018295 -13.64779663 50.30142212 C-13.69227343 45.53363736 -13.73329304 40.76599045 -13.75634766 35.99804688 C-13.77292624 33.48200239 -13.80024082 30.96600536 -13.83837891 28.45019531 C-13.89307216 24.82331909 -13.91500922 21.19754524 -13.9296875 17.5703125 C-13.95235687 16.44621979 -13.97502625 15.32212708 -13.99838257 14.16397095 C-13.98545899 9.39800081 -13.96086697 6.4810562 -11.39892578 2.38232422 C-7.56011982 0.08805986 -4.34783478 -0.09283714 0 0 Z " fill="#0074FF" transform="translate(277.40625,215.40625)"/>
<path d="M0 0 C0.80232056 -0.00004028 1.60464111 -0.00008057 2.43127441 -0.00012207 C4.12239443 0.00522359 5.8135146 0.02276578 7.50439453 0.05175781 C10.08573724 0.09362006 12.66446867 0.09282315 15.24609375 0.0859375 C16.89324721 0.09643096 18.54038728 0.10936992 20.1875 0.125 C21.3392572 0.12530212 21.3392572 0.12530212 22.51428223 0.12561035 C27.02599744 0.22473308 30.01087988 0.78722566 33.59375 3.59375 C34.84331796 6.09288591 34.73417304 7.81015175 34.75488281 10.60668945 C34.76449036 11.65149979 34.7740979 12.69631012 34.78399658 13.77278137 C34.78824646 14.90608383 34.79249634 16.03938629 34.796875 17.20703125 C34.80257507 18.36873337 34.80827515 19.53043549 34.81414795 20.7273407 C34.82360796 23.18955573 34.83013589 25.65178348 34.83398438 28.11401367 C34.8436831 31.88027073 34.87469508 35.64598065 34.90625 39.41210938 C34.91278055 41.80208009 34.91803082 44.19205471 34.921875 46.58203125 C34.9342218 47.70926102 34.9465686 48.83649078 34.95928955 49.99787903 C34.95628845 51.05214584 34.95328735 52.10641266 34.95019531 53.19262695 C34.95566376 54.57923271 34.95566376 54.57923271 34.96124268 55.99385071 C34.51274027 59.16686932 33.50648083 61.03811993 31.59375 63.59375 C27.8240619 64.8503127 24.27657257 64.77550362 20.34765625 64.796875 C19.54013412 64.80257507 18.732612 64.80827515 17.90061951 64.81414795 C16.19344388 64.82358834 14.48625011 64.83012812 12.77905273 64.83398438 C10.16943625 64.8437009 7.56060393 64.8747369 4.95117188 64.90625 C3.29167134 64.91277933 1.63216518 64.91803007 -0.02734375 64.921875 C-0.80661728 64.9342218 -1.58589081 64.9465686 -2.38877869 64.95928955 C-5.62902164 64.94598287 -7.99008795 64.81914875 -10.86743164 63.26074219 C-13.60689591 60.29309789 -13.54530835 57.31605502 -13.59912109 53.46728516 C-13.62321548 51.90018295 -13.62321548 51.90018295 -13.64779663 50.30142212 C-13.69227343 45.53363736 -13.73329304 40.76599045 -13.75634766 35.99804688 C-13.77292624 33.48200239 -13.80024082 30.96600536 -13.83837891 28.45019531 C-13.89307216 24.82331909 -13.91500922 21.19754524 -13.9296875 17.5703125 C-13.95235687 16.44621979 -13.97502625 15.32212708 -13.99838257 14.16397095 C-13.98545899 9.39800081 -13.96086697 6.4810562 -11.39892578 2.38232422 C-7.56011982 0.08805986 -4.34783478 -0.09283714 0 0 Z " fill="#0074FF" transform="translate(173.40625,215.40625)"/>
<path d="M0 0 C0.80232056 -0.00004028 1.60464111 -0.00008057 2.43127441 -0.00012207 C4.12239443 0.00522359 5.8135146 0.02276578 7.50439453 0.05175781 C10.08573724 0.09362006 12.66446867 0.09282315 15.24609375 0.0859375 C16.89324721 0.09643096 18.54038728 0.10936992 20.1875 0.125 C21.3392572 0.12530212 21.3392572 0.12530212 22.51428223 0.12561035 C27.02599744 0.22473308 30.01087988 0.78722566 33.59375 3.59375 C34.84331796 6.09288591 34.73417304 7.81015175 34.75488281 10.60668945 C34.76449036 11.65149979 34.7740979 12.69631012 34.78399658 13.77278137 C34.78824646 14.90608383 34.79249634 16.03938629 34.796875 17.20703125 C34.80257507 18.36873337 34.80827515 19.53043549 34.81414795 20.7273407 C34.82360796 23.18955573 34.83013589 25.65178348 34.83398438 28.11401367 C34.8436831 31.88027073 34.87469508 35.64598065 34.90625 39.41210938 C34.91278055 41.80208009 34.91803082 44.19205471 34.921875 46.58203125 C34.9342218 47.70926102 34.9465686 48.83649078 34.95928955 49.99787903 C34.95628845 51.05214584 34.95328735 52.10641266 34.95019531 53.19262695 C34.95566376 54.57923271 34.95566376 54.57923271 34.96124268 55.99385071 C34.51274027 59.16686932 33.50648083 61.03811993 31.59375 63.59375 C27.8240619 64.8503127 24.27657257 64.77550362 20.34765625 64.796875 C19.54013412 64.80257507 18.732612 64.80827515 17.90061951 64.81414795 C16.19344388 64.82358834 14.48625011 64.83012812 12.77905273 64.83398438 C10.16943625 64.8437009 7.56060393 64.8747369 4.95117188 64.90625 C3.29167134 64.91277933 1.63216518 64.91803007 -0.02734375 64.921875 C-0.80661728 64.9342218 -1.58589081 64.9465686 -2.38877869 64.95928955 C-5.62902164 64.94598287 -7.99008795 64.81914875 -10.86743164 63.26074219 C-13.60689591 60.29309789 -13.54530835 57.31605502 -13.59912109 53.46728516 C-13.62321548 51.90018295 -13.62321548 51.90018295 -13.64779663 50.30142212 C-13.69227343 45.53363736 -13.73329304 40.76599045 -13.75634766 35.99804688 C-13.77292624 33.48200239 -13.80024082 30.96600536 -13.83837891 28.45019531 C-13.89307216 24.82331909 -13.91500922 21.19754524 -13.9296875 17.5703125 C-13.95235687 16.44621979 -13.97502625 15.32212708 -13.99838257 14.16397095 C-13.98545899 9.39800081 -13.96086697 6.4810562 -11.39892578 2.38232422 C-7.56011982 0.08805986 -4.34783478 -0.09283714 0 0 Z " fill="#0074FF" transform="translate(277.40625,127.40625)"/>
<path d="M0 0 C0.80232056 -0.00004028 1.60464111 -0.00008057 2.43127441 -0.00012207 C4.12239443 0.00522359 5.8135146 0.02276578 7.50439453 0.05175781 C10.08573724 0.09362006 12.66446867 0.09282315 15.24609375 0.0859375 C16.89324721 0.09643096 18.54038728 0.10936992 20.1875 0.125 C21.3392572 0.12530212 21.3392572 0.12530212 22.51428223 0.12561035 C27.02599744 0.22473308 30.01087988 0.78722566 33.59375 3.59375 C34.84331796 6.09288591 34.73417304 7.81015175 34.75488281 10.60668945 C34.76449036 11.65149979 34.7740979 12.69631012 34.78399658 13.77278137 C34.78824646 14.90608383 34.79249634 16.03938629 34.796875 17.20703125 C34.80257507 18.36873337 34.80827515 19.53043549 34.81414795 20.7273407 C34.82360796 23.18955573 34.83013589 25.65178348 34.83398438 28.11401367 C34.8436831 31.88027073 34.87469508 35.64598065 34.90625 39.41210938 C34.91278055 41.80208009 34.91803082 44.19205471 34.921875 46.58203125 C34.9342218 47.70926102 34.9465686 48.83649078 34.95928955 49.99787903 C34.95628845 51.05214584 34.95328735 52.10641266 34.95019531 53.19262695 C34.95566376 54.57923271 34.95566376 54.57923271 34.96124268 55.99385071 C34.51274027 59.16686932 33.50648083 61.03811993 31.59375 63.59375 C27.8240619 64.8503127 24.27657257 64.77550362 20.34765625 64.796875 C19.54013412 64.80257507 18.732612 64.80827515 17.90061951 64.81414795 C16.19344388 64.82358834 14.48625011 64.83012812 12.77905273 64.83398438 C10.16943625 64.8437009 7.56060393 64.8747369 4.95117188 64.90625 C3.29167134 64.91277933 1.63216518 64.91803007 -0.02734375 64.921875 C-0.80661728 64.9342218 -1.58589081 64.9465686 -2.38877869 64.95928955 C-5.62902164 64.94598287 -7.99008795 64.81914875 -10.86743164 63.26074219 C-13.60689591 60.29309789 -13.54530835 57.31605502 -13.59912109 53.46728516 C-13.62321548 51.90018295 -13.62321548 51.90018295 -13.64779663 50.30142212 C-13.69227343 45.53363736 -13.73329304 40.76599045 -13.75634766 35.99804688 C-13.77292624 33.48200239 -13.80024082 30.96600536 -13.83837891 28.45019531 C-13.89307216 24.82331909 -13.91500922 21.19754524 -13.9296875 17.5703125 C-13.95235687 16.44621979 -13.97502625 15.32212708 -13.99838257 14.16397095 C-13.98545899 9.39800081 -13.96086697 6.4810562 -11.39892578 2.38232422 C-7.56011982 0.08805986 -4.34783478 -0.09283714 0 0 Z " fill="#0074FF" transform="translate(133.40625,127.40625)"/>
<path d="M0 0 C0.80232056 -0.00004028 1.60464111 -0.00008057 2.43127441 -0.00012207 C4.12239443 0.00522359 5.8135146 0.02276578 7.50439453 0.05175781 C10.08573724 0.09362006 12.66446867 0.09282315 15.24609375 0.0859375 C16.89324721 0.09643096 18.54038728 0.10936992 20.1875 0.125 C21.3392572 0.12530212 21.3392572 0.12530212 22.51428223 0.12561035 C27.02599744 0.22473308 30.01087988 0.78722566 33.59375 3.59375 C34.84331796 6.09288591 34.73417304 7.81015175 34.75488281 10.60668945 C34.76449036 11.65149979 34.7740979 12.69631012 34.78399658 13.77278137 C34.78824646 14.90608383 34.79249634 16.03938629 34.796875 17.20703125 C34.80257507 18.36873337 34.80827515 19.53043549 34.81414795 20.7273407 C34.82360796 23.18955573 34.83013589 25.65178348 34.83398438 28.11401367 C34.8436831 31.88027073 34.87469508 35.64598065 34.90625 39.41210938 C34.91278055 41.80208009 34.91803082 44.19205471 34.921875 46.58203125 C34.9342218 47.70926102 34.9465686 48.83649078 34.95928955 49.99787903 C34.95628845 51.05214584 34.95328735 52.10641266 34.95019531 53.19262695 C34.95566376 54.57923271 34.95566376 54.57923271 34.96124268 55.99385071 C34.51274027 59.16686932 33.50648083 61.03811993 31.59375 63.59375 C27.8240619 64.8503127 24.27657257 64.77550362 20.34765625 64.796875 C19.54013412 64.80257507 18.732612 64.80827515 17.90061951 64.81414795 C16.19344388 64.82358834 14.48625011 64.83012812 12.77905273 64.83398438 C10.16943625 64.8437009 7.56060393 64.8747369 4.95117188 64.90625 C3.29167134 64.91277933 1.63216518 64.91803007 -0.02734375 64.921875 C-0.80661728 64.9342218 -1.58589081 64.9465686 -2.38877869 64.95928955 C-5.62902164 64.94598287 -7.99008795 64.81914875 -10.86743164 63.26074219 C-13.60689591 60.29309789 -13.54530835 57.31605502 -13.59912109 53.46728516 C-13.62321548 51.90018295 -13.62321548 51.90018295 -13.64779663 50.30142212 C-13.69227343 45.53363736 -13.73329304 40.76599045 -13.75634766 35.99804688 C-13.77292624 33.48200239 -13.80024082 30.96600536 -13.83837891 28.45019531 C-13.89307216 24.82331909 -13.91500922 21.19754524 -13.9296875 17.5703125 C-13.95235687 16.44621979 -13.97502625 15.32212708 -13.99838257 14.16397095 C-13.98545899 9.39800081 -13.96086697 6.4810562 -11.39892578 2.38232422 C-7.56011982 0.08805986 -4.34783478 -0.09283714 0 0 Z " fill="#0074FF" transform="translate(277.40625,39.40625)"/>
<path d="M0 0 C0.80232056 -0.00004028 1.60464111 -0.00008057 2.43127441 -0.00012207 C4.12239443 0.00522359 5.8135146 0.02276578 7.50439453 0.05175781 C10.08573724 0.09362006 12.66446867 0.09282315 15.24609375 0.0859375 C16.89324721 0.09643096 18.54038728 0.10936992 20.1875 0.125 C21.3392572 0.12530212 21.3392572 0.12530212 22.51428223 0.12561035 C27.02599744 0.22473308 30.01087988 0.78722566 33.59375 3.59375 C34.84331796 6.09288591 34.73417304 7.81015175 34.75488281 10.60668945 C34.76449036 11.65149979 34.7740979 12.69631012 34.78399658 13.77278137 C34.78824646 14.90608383 34.79249634 16.03938629 34.796875 17.20703125 C34.80257507 18.36873337 34.80827515 19.53043549 34.81414795 20.7273407 C34.82360796 23.18955573 34.83013589 25.65178348 34.83398438 28.11401367 C34.8436831 31.88027073 34.87469508 35.64598065 34.90625 39.41210938 C34.91278055 41.80208009 34.91803082 44.19205471 34.921875 46.58203125 C34.9342218 47.70926102 34.9465686 48.83649078 34.95928955 49.99787903 C34.95628845 51.05214584 34.95328735 52.10641266 34.95019531 53.19262695 C34.95566376 54.57923271 34.95566376 54.57923271 34.96124268 55.99385071 C34.51274027 59.16686932 33.50648083 61.03811993 31.59375 63.59375 C27.8240619 64.8503127 24.27657257 64.77550362 20.34765625 64.796875 C19.54013412 64.80257507 18.732612 64.80827515 17.90061951 64.81414795 C16.19344388 64.82358834 14.48625011 64.83012812 12.77905273 64.83398438 C10.16943625 64.8437009 7.56060393 64.8747369 4.95117188 64.90625 C3.29167134 64.91277933 1.63216518 64.91803007 -0.02734375 64.921875 C-0.80661728 64.9342218 -1.58589081 64.9465686 -2.38877869 64.95928955 C-5.62902164 64.94598287 -7.99008795 64.81914875 -10.86743164 63.26074219 C-13.60689591 60.29309789 -13.54530835 57.31605502 -13.59912109 53.46728516 C-13.62321548 51.90018295 -13.62321548 51.90018295 -13.64779663 50.30142212 C-13.69227343 45.53363736 -13.73329304 40.76599045 -13.75634766 35.99804688 C-13.77292624 33.48200239 -13.80024082 30.96600536 -13.83837891 28.45019531 C-13.89307216 24.82331909 -13.91500922 21.19754524 -13.9296875 17.5703125 C-13.95235687 16.44621979 -13.97502625 15.32212708 -13.99838257 14.16397095 C-13.98545899 9.39800081 -13.96086697 6.4810562 -11.39892578 2.38232422 C-7.56011982 0.08805986 -4.34783478 -0.09283714 0 0 Z " fill="#0074FF" transform="translate(173.40625,39.40625)"/>
<path d="M0 0 C8.15372914 0.31360497 15.71373186 3.34557218 21.9609375 8.671875 C27.24492872 14.51913432 31.12861835 21.94118425 31.12025452 29.87846375 C31.12162918 30.88387207 31.12300385 31.8892804 31.12442017 32.92515564 C31.12082489 34.0271077 31.11722961 35.12905975 31.11352539 36.2644043 C31.11367142 37.42551727 31.11381744 38.58663025 31.1139679 39.78292847 C31.11326989 43.63004407 31.10548266 47.47711158 31.09765625 51.32421875 C31.09579167 53.98794131 31.09431878 56.65166118 31.09336853 59.31538391 C31.09025943 65.61579291 31.0820517 71.91618457 31.07201904 78.21658593 C31.06084485 85.38943077 31.05534416 92.56227643 31.05032361 99.73512781 C31.03986875 114.49009428 31.02207619 129.24504627 31 144 C25.72 144 20.44 144 15 144 C14.99191315 142.56894928 14.98382629 141.13789856 14.97549438 139.66348267 C14.89790726 126.15709911 14.81025132 112.65080819 14.71247292 99.14455605 C14.66246377 92.20137331 14.61602009 85.2582017 14.578125 78.31494141 C14.54152318 71.6105077 14.49478037 64.90621381 14.44193649 58.20188522 C14.42344759 55.64795501 14.40831947 53.09399812 14.39665604 50.54002762 C14.37969941 46.95445314 14.35064136 43.36916089 14.31884766 39.78369141 C14.31668747 38.7349585 14.31452728 37.68622559 14.31230164 36.60571289 C14.15404868 22.57452189 10.96986206 12.86313535 1.35546875 2.53125 C0 1 0 1 0 0 Z " fill="#95A0C2" transform="translate(49,16)"/>
<path d="M0 0 C1.258125 -0.01546875 2.51625 -0.0309375 3.8125 -0.046875 C15.44243645 0.00240439 15.44243645 0.00240439 20 4.5 C24.74136566 9.30458387 24.51972728 14.28063786 24.546875 20.6875 C24.53140625 21.945625 24.5159375 23.20375 24.5 24.5 C24.51546875 25.758125 24.5309375 27.01625 24.546875 28.3125 C24.49759561 39.94243645 24.49759561 39.94243645 20 44.5 C15.19541613 49.24136566 10.21936214 49.01972728 3.8125 49.046875 C2.554375 49.03140625 1.29625 49.0159375 0 49 C-1.258125 49.01546875 -2.51625 49.0309375 -3.8125 49.046875 C-15.44243645 48.99759561 -15.44243645 48.99759561 -20 44.5 C-24.74136566 39.69541613 -24.51972728 34.71936214 -24.546875 28.3125 C-24.53140625 27.054375 -24.5159375 25.79625 -24.5 24.5 C-24.51546875 23.241875 -24.5309375 21.98375 -24.546875 20.6875 C-24.49759561 9.05756355 -24.49759561 9.05756355 -20 4.5 C-14.38621483 -1.03991958 -7.39116829 -0.09087502 0 0 Z " fill="#023C58" transform="translate(480,335.5)"/>
<path d="M0 0 C1.258125 -0.01546875 2.51625 -0.0309375 3.8125 -0.046875 C15.44243645 0.00240439 15.44243645 0.00240439 20 4.5 C24.74136566 9.30458387 24.51972728 14.28063786 24.546875 20.6875 C24.53140625 21.945625 24.5159375 23.20375 24.5 24.5 C24.51546875 25.758125 24.5309375 27.01625 24.546875 28.3125 C24.49759561 39.94243645 24.49759561 39.94243645 20 44.5 C15.19541613 49.24136566 10.21936214 49.01972728 3.8125 49.046875 C2.554375 49.03140625 1.29625 49.0159375 0 49 C-1.258125 49.01546875 -2.51625 49.0309375 -3.8125 49.046875 C-15.44243645 48.99759561 -15.44243645 48.99759561 -20 44.5 C-24.74136566 39.69541613 -24.51972728 34.71936214 -24.546875 28.3125 C-24.53140625 27.054375 -24.5159375 25.79625 -24.5 24.5 C-24.51546875 23.241875 -24.5309375 21.98375 -24.546875 20.6875 C-24.49759561 9.05756355 -24.49759561 9.05756355 -20 4.5 C-14.38621483 -1.03991958 -7.39116829 -0.09087502 0 0 Z " fill="#023C58" transform="translate(480,199.5)"/>
<path d="M0 0 C4.64963504 2.29927007 4.64963504 2.29927007 6 5 C6.10560313 6.66850424 6.14875231 8.34114247 6.16113281 10.01293945 C6.17074036 11.05774979 6.1803479 12.10256012 6.19024658 13.17903137 C6.19449646 14.31233383 6.19874634 15.44563629 6.203125 16.61328125 C6.20882507 17.77498337 6.21452515 18.93668549 6.22039795 20.1335907 C6.22985796 22.59580573 6.23638589 25.05803348 6.24023438 27.52026367 C6.2499331 31.28652073 6.28094508 35.05223065 6.3125 38.81835938 C6.31903055 41.20833009 6.32428082 43.59830471 6.328125 45.98828125 C6.3404718 47.11551102 6.3528186 48.24274078 6.36553955 49.40412903 C6.36253845 50.45839584 6.35953735 51.51266266 6.35644531 52.59887695 C6.36009094 53.52328079 6.36373657 54.44768463 6.36749268 55.40010071 C5.92252404 58.54811895 4.84797347 60.4346076 3 63 C0.19084526 64.40457737 -1.88810534 64.24895157 -5 64 C-8.1359157 62.22015595 -8.84102736 61.47691793 -10 58 C-10.08589303 56.60344541 -10.11772715 55.20314223 -10.11352539 53.80395508 C-10.11344986 52.96331009 -10.11337433 52.1226651 -10.11329651 51.25654602 C-10.10813522 50.35333115 -10.10297394 49.45011627 -10.09765625 48.51953125 C-10.0962413 47.59154221 -10.09482635 46.66355316 -10.09336853 45.70744324 C-10.08776937 42.74242942 -10.07521704 39.77749101 -10.0625 36.8125 C-10.05748489 34.80273547 -10.052922 32.79296975 -10.04882812 30.78320312 C-10.03780021 25.85543968 -10.02053617 20.92773263 -10 16 C-10.78761719 15.86980469 -11.57523437 15.73960937 -12.38671875 15.60546875 C-15 15 -15 15 -16.8125 13.3125 C-18.40188959 10.21737291 -18.56159999 8.43979993 -18 5 C-14.0594899 -1.71346165 -6.95616502 -1.03309382 0 0 Z " fill="#0275FF" transform="translate(386,216)"/>
<path d="M0 0 C4.64963504 2.29927007 4.64963504 2.29927007 6 5 C6.10560313 6.66850424 6.14875231 8.34114247 6.16113281 10.01293945 C6.17074036 11.05774979 6.1803479 12.10256012 6.19024658 13.17903137 C6.19449646 14.31233383 6.19874634 15.44563629 6.203125 16.61328125 C6.20882507 17.77498337 6.21452515 18.93668549 6.22039795 20.1335907 C6.22985796 22.59580573 6.23638589 25.05803348 6.24023438 27.52026367 C6.2499331 31.28652073 6.28094508 35.05223065 6.3125 38.81835938 C6.31903055 41.20833009 6.32428082 43.59830471 6.328125 45.98828125 C6.3404718 47.11551102 6.3528186 48.24274078 6.36553955 49.40412903 C6.36253845 50.45839584 6.35953735 51.51266266 6.35644531 52.59887695 C6.36009094 53.52328079 6.36373657 54.44768463 6.36749268 55.40010071 C5.92252404 58.54811895 4.84797347 60.4346076 3 63 C0.19084526 64.40457737 -1.88810534 64.24895157 -5 64 C-8.1359157 62.22015595 -8.84102736 61.47691793 -10 58 C-10.08589303 56.60344541 -10.11772715 55.20314223 -10.11352539 53.80395508 C-10.11344986 52.96331009 -10.11337433 52.1226651 -10.11329651 51.25654602 C-10.10813522 50.35333115 -10.10297394 49.45011627 -10.09765625 48.51953125 C-10.0962413 47.59154221 -10.09482635 46.66355316 -10.09336853 45.70744324 C-10.08776937 42.74242942 -10.07521704 39.77749101 -10.0625 36.8125 C-10.05748489 34.80273547 -10.052922 32.79296975 -10.04882812 30.78320312 C-10.03780021 25.85543968 -10.02053617 20.92773263 -10 16 C-10.78761719 15.86980469 -11.57523437 15.73960937 -12.38671875 15.60546875 C-15 15 -15 15 -16.8125 13.3125 C-18.40188959 10.21737291 -18.56159999 8.43979993 -18 5 C-14.0594899 -1.71346165 -6.95616502 -1.03309382 0 0 Z " fill="#0275FF" transform="translate(346,216)"/>
<path d="M0 0 C4.64963504 2.29927007 4.64963504 2.29927007 6 5 C6.10560313 6.66850424 6.14875231 8.34114247 6.16113281 10.01293945 C6.17074036 11.05774979 6.1803479 12.10256012 6.19024658 13.17903137 C6.19449646 14.31233383 6.19874634 15.44563629 6.203125 16.61328125 C6.20882507 17.77498337 6.21452515 18.93668549 6.22039795 20.1335907 C6.22985796 22.59580573 6.23638589 25.05803348 6.24023438 27.52026367 C6.2499331 31.28652073 6.28094508 35.05223065 6.3125 38.81835938 C6.31903055 41.20833009 6.32428082 43.59830471 6.328125 45.98828125 C6.3404718 47.11551102 6.3528186 48.24274078 6.36553955 49.40412903 C6.36253845 50.45839584 6.35953735 51.51266266 6.35644531 52.59887695 C6.36009094 53.52328079 6.36373657 54.44768463 6.36749268 55.40010071 C5.92252404 58.54811895 4.84797347 60.4346076 3 63 C0.19084526 64.40457737 -1.88810534 64.24895157 -5 64 C-8.1359157 62.22015595 -8.84102736 61.47691793 -10 58 C-10.08589303 56.60344541 -10.11772715 55.20314223 -10.11352539 53.80395508 C-10.11344986 52.96331009 -10.11337433 52.1226651 -10.11329651 51.25654602 C-10.10813522 50.35333115 -10.10297394 49.45011627 -10.09765625 48.51953125 C-10.0962413 47.59154221 -10.09482635 46.66355316 -10.09336853 45.70744324 C-10.08776937 42.74242942 -10.07521704 39.77749101 -10.0625 36.8125 C-10.05748489 34.80273547 -10.052922 32.79296975 -10.04882812 30.78320312 C-10.03780021 25.85543968 -10.02053617 20.92773263 -10 16 C-10.78761719 15.86980469 -11.57523438 15.73960937 -12.38671875 15.60546875 C-15 15 -15 15 -16.8125 13.3125 C-18.40188959 10.21737291 -18.56159999 8.43979993 -18 5 C-14.0594899 -1.71346165 -6.95616502 -1.03309382 0 0 Z " fill="#0275FF" transform="translate(242,216)"/>
<path d="M0 0 C4.64963504 2.29927007 4.64963504 2.29927007 6 5 C6.10560313 6.66850424 6.14875231 8.34114247 6.16113281 10.01293945 C6.17074036 11.05774979 6.1803479 12.10256012 6.19024658 13.17903137 C6.19449646 14.31233383 6.19874634 15.44563629 6.203125 16.61328125 C6.20882507 17.77498337 6.21452515 18.93668549 6.22039795 20.1335907 C6.22985796 22.59580573 6.23638589 25.05803348 6.24023438 27.52026367 C6.2499331 31.28652073 6.28094508 35.05223065 6.3125 38.81835938 C6.31903055 41.20833009 6.32428082 43.59830471 6.328125 45.98828125 C6.3404718 47.11551102 6.3528186 48.24274078 6.36553955 49.40412903 C6.36253845 50.45839584 6.35953735 51.51266266 6.35644531 52.59887695 C6.36009094 53.52328079 6.36373657 54.44768463 6.36749268 55.40010071 C5.92252404 58.54811895 4.84797347 60.4346076 3 63 C0.19084526 64.40457737 -1.88810534 64.24895157 -5 64 C-8.1359157 62.22015595 -8.84102736 61.47691793 -10 58 C-10.08589303 56.60344541 -10.11772715 55.20314223 -10.11352539 53.80395508 C-10.11344986 52.96331009 -10.11337433 52.1226651 -10.11329651 51.25654602 C-10.10813522 50.35333115 -10.10297394 49.45011627 -10.09765625 48.51953125 C-10.0962413 47.59154221 -10.09482635 46.66355316 -10.09336853 45.70744324 C-10.08776937 42.74242942 -10.07521704 39.77749101 -10.0625 36.8125 C-10.05748489 34.80273547 -10.052922 32.79296975 -10.04882812 30.78320312 C-10.03780021 25.85543968 -10.02053617 20.92773263 -10 16 C-10.78761719 15.86980469 -11.57523437 15.73960937 -12.38671875 15.60546875 C-15 15 -15 15 -16.8125 13.3125 C-18.40188959 10.21737291 -18.56159999 8.43979993 -18 5 C-14.0594899 -1.71346165 -6.95616502 -1.03309382 0 0 Z " fill="#0275FF" transform="translate(138,216)"/>
<path d="M0 0 C4.64963504 2.29927007 4.64963504 2.29927007 6 5 C6.10560313 6.66850424 6.14875231 8.34114247 6.16113281 10.01293945 C6.17074036 11.05774979 6.1803479 12.10256012 6.19024658 13.17903137 C6.19449646 14.31233383 6.19874634 15.44563629 6.203125 16.61328125 C6.20882507 17.77498337 6.21452515 18.93668549 6.22039795 20.1335907 C6.22985796 22.59580573 6.23638589 25.05803348 6.24023438 27.52026367 C6.2499331 31.28652073 6.28094508 35.05223065 6.3125 38.81835938 C6.31903055 41.20833009 6.32428082 43.59830471 6.328125 45.98828125 C6.3404718 47.11551102 6.3528186 48.24274078 6.36553955 49.40412903 C6.36253845 50.45839584 6.35953735 51.51266266 6.35644531 52.59887695 C6.36009094 53.52328079 6.36373657 54.44768463 6.36749268 55.40010071 C5.92252404 58.54811895 4.84797347 60.4346076 3 63 C0.19084526 64.40457737 -1.88810534 64.24895157 -5 64 C-8.1359157 62.22015595 -8.84102736 61.47691793 -10 58 C-10.08589303 56.60344541 -10.11772715 55.20314223 -10.11352539 53.80395508 C-10.11344986 52.96331009 -10.11337433 52.1226651 -10.11329651 51.25654602 C-10.10813522 50.35333115 -10.10297394 49.45011627 -10.09765625 48.51953125 C-10.0962413 47.59154221 -10.09482635 46.66355316 -10.09336853 45.70744324 C-10.08776937 42.74242942 -10.07521704 39.77749101 -10.0625 36.8125 C-10.05748489 34.80273547 -10.052922 32.79296975 -10.04882812 30.78320312 C-10.03780021 25.85543968 -10.02053617 20.92773263 -10 16 C-10.78761719 15.86980469 -11.57523437 15.73960937 -12.38671875 15.60546875 C-15 15 -15 15 -16.8125 13.3125 C-18.40188959 10.21737291 -18.56159999 8.43979993 -18 5 C-14.0594899 -1.71346165 -6.95616502 -1.03309382 0 0 Z " fill="#0275FF" transform="translate(386,128)"/>
<path d="M0 0 C4.64963504 2.29927007 4.64963504 2.29927007 6 5 C6.10560313 6.66850424 6.14875231 8.34114247 6.16113281 10.01293945 C6.17074036 11.05774979 6.1803479 12.10256012 6.19024658 13.17903137 C6.19449646 14.31233383 6.19874634 15.44563629 6.203125 16.61328125 C6.20882507 17.77498337 6.21452515 18.93668549 6.22039795 20.1335907 C6.22985796 22.59580573 6.23638589 25.05803348 6.24023438 27.52026367 C6.2499331 31.28652073 6.28094508 35.05223065 6.3125 38.81835938 C6.31903055 41.20833009 6.32428082 43.59830471 6.328125 45.98828125 C6.3404718 47.11551102 6.3528186 48.24274078 6.36553955 49.40412903 C6.36253845 50.45839584 6.35953735 51.51266266 6.35644531 52.59887695 C6.36009094 53.52328079 6.36373657 54.44768463 6.36749268 55.40010071 C5.92252404 58.54811895 4.84797347 60.4346076 3 63 C0.19084526 64.40457737 -1.88810534 64.24895157 -5 64 C-8.1359157 62.22015595 -8.84102736 61.47691793 -10 58 C-10.08589303 56.60344541 -10.11772715 55.20314223 -10.11352539 53.80395508 C-10.11344986 52.96331009 -10.11337433 52.1226651 -10.11329651 51.25654602 C-10.10813522 50.35333115 -10.10297394 49.45011627 -10.09765625 48.51953125 C-10.0962413 47.59154221 -10.09482635 46.66355316 -10.09336853 45.70744324 C-10.08776937 42.74242942 -10.07521704 39.77749101 -10.0625 36.8125 C-10.05748489 34.80273547 -10.052922 32.79296975 -10.04882812 30.78320312 C-10.03780021 25.85543968 -10.02053617 20.92773263 -10 16 C-10.78761719 15.86980469 -11.57523437 15.73960937 -12.38671875 15.60546875 C-15 15 -15 15 -16.8125 13.3125 C-18.40188959 10.21737291 -18.56159999 8.43979993 -18 5 C-14.0594899 -1.71346165 -6.95616502 -1.03309382 0 0 Z " fill="#0275FF" transform="translate(346,128)"/>
<path d="M0 0 C4.64963504 2.29927007 4.64963504 2.29927007 6 5 C6.10560313 6.66850424 6.14875231 8.34114247 6.16113281 10.01293945 C6.17074036 11.05774979 6.1803479 12.10256012 6.19024658 13.17903137 C6.19449646 14.31233383 6.19874634 15.44563629 6.203125 16.61328125 C6.20882507 17.77498337 6.21452515 18.93668549 6.22039795 20.1335907 C6.22985796 22.59580573 6.23638589 25.05803348 6.24023438 27.52026367 C6.2499331 31.28652073 6.28094508 35.05223065 6.3125 38.81835938 C6.31903055 41.20833009 6.32428082 43.59830471 6.328125 45.98828125 C6.3404718 47.11551102 6.3528186 48.24274078 6.36553955 49.40412903 C6.36253845 50.45839584 6.35953735 51.51266266 6.35644531 52.59887695 C6.36009094 53.52328079 6.36373657 54.44768463 6.36749268 55.40010071 C5.92252404 58.54811895 4.84797347 60.4346076 3 63 C0.19084526 64.40457737 -1.88810534 64.24895157 -5 64 C-8.1359157 62.22015595 -8.84102736 61.47691793 -10 58 C-10.08589303 56.60344541 -10.11772715 55.20314223 -10.11352539 53.80395508 C-10.11344986 52.96331009 -10.11337433 52.1226651 -10.11329651 51.25654602 C-10.10813522 50.35333115 -10.10297394 49.45011627 -10.09765625 48.51953125 C-10.0962413 47.59154221 -10.09482635 46.66355316 -10.09336853 45.70744324 C-10.08776937 42.74242942 -10.07521704 39.77749101 -10.0625 36.8125 C-10.05748489 34.80273547 -10.052922 32.79296975 -10.04882812 30.78320312 C-10.03780021 25.85543968 -10.02053617 20.92773263 -10 16 C-10.78761719 15.86980469 -11.57523438 15.73960937 -12.38671875 15.60546875 C-15 15 -15 15 -16.8125 13.3125 C-18.40188959 10.21737291 -18.56159999 8.43979993 -18 5 C-14.0594899 -1.71346165 -6.95616502 -1.03309382 0 0 Z " fill="#0275FF" transform="translate(242,128)"/>
<path d="M0 0 C4.64963504 2.29927007 4.64963504 2.29927007 6 5 C6.10560313 6.66850424 6.14875231 8.34114247 6.16113281 10.01293945 C6.17074036 11.05774979 6.1803479 12.10256012 6.19024658 13.17903137 C6.19449646 14.31233383 6.19874634 15.44563629 6.203125 16.61328125 C6.20882507 17.77498337 6.21452515 18.93668549 6.22039795 20.1335907 C6.22985796 22.59580573 6.23638589 25.05803348 6.24023438 27.52026367 C6.2499331 31.28652073 6.28094508 35.05223065 6.3125 38.81835938 C6.31903055 41.20833009 6.32428082 43.59830471 6.328125 45.98828125 C6.3404718 47.11551102 6.3528186 48.24274078 6.36553955 49.40412903 C6.36253845 50.45839584 6.35953735 51.51266266 6.35644531 52.59887695 C6.36009094 53.52328079 6.36373657 54.44768463 6.36749268 55.40010071 C5.92252404 58.54811895 4.84797347 60.4346076 3 63 C0.19084526 64.40457737 -1.88810534 64.24895157 -5 64 C-8.1359157 62.22015595 -8.84102736 61.47691793 -10 58 C-10.08589303 56.60344541 -10.11772715 55.20314223 -10.11352539 53.80395508 C-10.11344986 52.96331009 -10.11337433 52.1226651 -10.11329651 51.25654602 C-10.10813522 50.35333115 -10.10297394 49.45011627 -10.09765625 48.51953125 C-10.0962413 47.59154221 -10.09482635 46.66355316 -10.09336853 45.70744324 C-10.08776937 42.74242942 -10.07521704 39.77749101 -10.0625 36.8125 C-10.05748489 34.80273547 -10.052922 32.79296975 -10.04882812 30.78320312 C-10.03780021 25.85543968 -10.02053617 20.92773263 -10 16 C-10.78761719 15.86980469 -11.57523438 15.73960937 -12.38671875 15.60546875 C-15 15 -15 15 -16.8125 13.3125 C-18.40188959 10.21737291 -18.56159999 8.43979993 -18 5 C-14.0594899 -1.71346165 -6.95616502 -1.03309382 0 0 Z " fill="#0275FF" transform="translate(202,128)"/>
<path d="M0 0 C4.64963504 2.29927007 4.64963504 2.29927007 6 5 C6.10560313 6.66850424 6.14875231 8.34114247 6.16113281 10.01293945 C6.17074036 11.05774979 6.1803479 12.10256012 6.19024658 13.17903137 C6.19449646 14.31233383 6.19874634 15.44563629 6.203125 16.61328125 C6.20882507 17.77498337 6.21452515 18.93668549 6.22039795 20.1335907 C6.22985796 22.59580573 6.23638589 25.05803348 6.24023438 27.52026367 C6.2499331 31.28652073 6.28094508 35.05223065 6.3125 38.81835938 C6.31903055 41.20833009 6.32428082 43.59830471 6.328125 45.98828125 C6.3404718 47.11551102 6.3528186 48.24274078 6.36553955 49.40412903 C6.36253845 50.45839584 6.35953735 51.51266266 6.35644531 52.59887695 C6.36009094 53.52328079 6.36373657 54.44768463 6.36749268 55.40010071 C5.92252404 58.54811895 4.84797347 60.4346076 3 63 C0.19084526 64.40457737 -1.88810534 64.24895157 -5 64 C-8.1359157 62.22015595 -8.84102736 61.47691793 -10 58 C-10.08589303 56.60344541 -10.11772715 55.20314223 -10.11352539 53.80395508 C-10.11344986 52.96331009 -10.11337433 52.1226651 -10.11329651 51.25654602 C-10.10813522 50.35333115 -10.10297394 49.45011627 -10.09765625 48.51953125 C-10.0962413 47.59154221 -10.09482635 46.66355316 -10.09336853 45.70744324 C-10.08776937 42.74242942 -10.07521704 39.77749101 -10.0625 36.8125 C-10.05748489 34.80273547 -10.052922 32.79296975 -10.04882812 30.78320312 C-10.03780021 25.85543968 -10.02053617 20.92773263 -10 16 C-10.78761719 15.86980469 -11.57523437 15.73960938 -12.38671875 15.60546875 C-15 15 -15 15 -16.8125 13.3125 C-18.40188959 10.21737291 -18.56159999 8.43979993 -18 5 C-14.0594899 -1.71346165 -6.95616502 -1.03309382 0 0 Z " fill="#0275FF" transform="translate(386,40)"/>
<path d="M0 0 C4.64963504 2.29927007 4.64963504 2.29927007 6 5 C6.10560313 6.66850424 6.14875231 8.34114247 6.16113281 10.01293945 C6.17074036 11.05774979 6.1803479 12.10256012 6.19024658 13.17903137 C6.19449646 14.31233383 6.19874634 15.44563629 6.203125 16.61328125 C6.20882507 17.77498337 6.21452515 18.93668549 6.22039795 20.1335907 C6.22985796 22.59580573 6.23638589 25.05803348 6.24023438 27.52026367 C6.2499331 31.28652073 6.28094508 35.05223065 6.3125 38.81835938 C6.31903055 41.20833009 6.32428082 43.59830471 6.328125 45.98828125 C6.3404718 47.11551102 6.3528186 48.24274078 6.36553955 49.40412903 C6.36253845 50.45839584 6.35953735 51.51266266 6.35644531 52.59887695 C6.36009094 53.52328079 6.36373657 54.44768463 6.36749268 55.40010071 C5.92252404 58.54811895 4.84797347 60.4346076 3 63 C0.19084526 64.40457737 -1.88810534 64.24895157 -5 64 C-8.1359157 62.22015595 -8.84102736 61.47691793 -10 58 C-10.08589303 56.60344541 -10.11772715 55.20314223 -10.11352539 53.80395508 C-10.11344986 52.96331009 -10.11337433 52.1226651 -10.11329651 51.25654602 C-10.10813522 50.35333115 -10.10297394 49.45011627 -10.09765625 48.51953125 C-10.0962413 47.59154221 -10.09482635 46.66355316 -10.09336853 45.70744324 C-10.08776937 42.74242942 -10.07521704 39.77749101 -10.0625 36.8125 C-10.05748489 34.80273547 -10.052922 32.79296975 -10.04882812 30.78320312 C-10.03780021 25.85543968 -10.02053617 20.92773263 -10 16 C-10.78761719 15.86980469 -11.57523437 15.73960938 -12.38671875 15.60546875 C-15 15 -15 15 -16.8125 13.3125 C-18.40188959 10.21737291 -18.56159999 8.43979993 -18 5 C-14.0594899 -1.71346165 -6.95616502 -1.03309382 0 0 Z " fill="#0275FF" transform="translate(346,40)"/>
<path d="M0 0 C4.64963504 2.29927007 4.64963504 2.29927007 6 5 C6.10560313 6.66850424 6.14875231 8.34114247 6.16113281 10.01293945 C6.17074036 11.05774979 6.1803479 12.10256012 6.19024658 13.17903137 C6.19449646 14.31233383 6.19874634 15.44563629 6.203125 16.61328125 C6.20882507 17.77498337 6.21452515 18.93668549 6.22039795 20.1335907 C6.22985796 22.59580573 6.23638589 25.05803348 6.24023438 27.52026367 C6.2499331 31.28652073 6.28094508 35.05223065 6.3125 38.81835938 C6.31903055 41.20833009 6.32428082 43.59830471 6.328125 45.98828125 C6.3404718 47.11551102 6.3528186 48.24274078 6.36553955 49.40412903 C6.36253845 50.45839584 6.35953735 51.51266266 6.35644531 52.59887695 C6.36009094 53.52328079 6.36373657 54.44768463 6.36749268 55.40010071 C5.92252404 58.54811895 4.84797347 60.4346076 3 63 C0.19084526 64.40457737 -1.88810534 64.24895157 -5 64 C-8.1359157 62.22015595 -8.84102736 61.47691793 -10 58 C-10.08589303 56.60344541 -10.11772715 55.20314223 -10.11352539 53.80395508 C-10.11344986 52.96331009 -10.11337433 52.1226651 -10.11329651 51.25654602 C-10.10813522 50.35333115 -10.10297394 49.45011627 -10.09765625 48.51953125 C-10.0962413 47.59154221 -10.09482635 46.66355316 -10.09336853 45.70744324 C-10.08776937 42.74242942 -10.07521704 39.77749101 -10.0625 36.8125 C-10.05748489 34.80273547 -10.052922 32.79296975 -10.04882812 30.78320312 C-10.03780021 25.85543968 -10.02053617 20.92773263 -10 16 C-10.78761719 15.86980469 -11.57523438 15.73960938 -12.38671875 15.60546875 C-15 15 -15 15 -16.8125 13.3125 C-18.40188959 10.21737291 -18.56159999 8.43979993 -18 5 C-14.0594899 -1.71346165 -6.95616502 -1.03309382 0 0 Z " fill="#0275FF" transform="translate(242,40)"/>
<path d="M0 0 C4.64963504 2.29927007 4.64963504 2.29927007 6 5 C6.10560313 6.66850424 6.14875231 8.34114247 6.16113281 10.01293945 C6.17074036 11.05774979 6.1803479 12.10256012 6.19024658 13.17903137 C6.19449646 14.31233383 6.19874634 15.44563629 6.203125 16.61328125 C6.20882507 17.77498337 6.21452515 18.93668549 6.22039795 20.1335907 C6.22985796 22.59580573 6.23638589 25.05803348 6.24023438 27.52026367 C6.2499331 31.28652073 6.28094508 35.05223065 6.3125 38.81835938 C6.31903055 41.20833009 6.32428082 43.59830471 6.328125 45.98828125 C6.3404718 47.11551102 6.3528186 48.24274078 6.36553955 49.40412903 C6.36253845 50.45839584 6.35953735 51.51266266 6.35644531 52.59887695 C6.36009094 53.52328079 6.36373657 54.44768463 6.36749268 55.40010071 C5.92252404 58.54811895 4.84797347 60.4346076 3 63 C0.19084526 64.40457737 -1.88810534 64.24895157 -5 64 C-8.1359157 62.22015595 -8.84102736 61.47691793 -10 58 C-10.08589303 56.60344541 -10.11772715 55.20314223 -10.11352539 53.80395508 C-10.11344986 52.96331009 -10.11337433 52.1226651 -10.11329651 51.25654602 C-10.10813522 50.35333115 -10.10297394 49.45011627 -10.09765625 48.51953125 C-10.0962413 47.59154221 -10.09482635 46.66355316 -10.09336853 45.70744324 C-10.08776937 42.74242942 -10.07521704 39.77749101 -10.0625 36.8125 C-10.05748489 34.80273547 -10.052922 32.79296975 -10.04882812 30.78320312 C-10.03780021 25.85543968 -10.02053617 20.92773263 -10 16 C-10.78761719 15.86980469 -11.57523437 15.73960938 -12.38671875 15.60546875 C-15 15 -15 15 -16.8125 13.3125 C-18.40188959 10.21737291 -18.56159999 8.43979993 -18 5 C-14.0594899 -1.71346165 -6.95616502 -1.03309382 0 0 Z " fill="#0275FF" transform="translate(138,40)"/>
<path d="M0 0 C10.56 0 21.12 0 32 0 C32 10.56 32 21.12 32 32 C21.44 32 10.88 32 0 32 C0 21.44 0 10.88 0 0 Z " fill="#0074FF" transform="translate(320,384)"/>
<path d="M0 0 C10.56 0 21.12 0 32 0 C32 10.56 32 21.12 32 32 C21.44 32 10.88 32 0 32 C0 21.44 0 10.88 0 0 Z " fill="#0074FF" transform="translate(424,272)"/>
<path d="M0 0 C4.98669007 2.49334503 8.49675474 5.99350949 11 11 C11.54360446 15.95482094 11.56437074 19.87125852 9.3125 24.375 C6.14745126 27.96775803 2.78798338 31.69412413 -2.171875 32.23828125 C-8.01846537 32.40659218 -11.43192863 32.02425335 -16 28 C-20.3022759 23.23261319 -21.36282503 19.56252705 -21.28125 13.28125 C-20.69180611 8.50020514 -17.85179203 5.75038822 -14.375 2.6875 C-9.71860985 -0.62098774 -5.60468123 -0.62082623 0 0 Z " fill="#EEF2FA" transform="translate(69,320)"/>
<path d="M0 0 C5.28 0 10.56 0 16 0 C16 10.56 16 21.12 16 32 C10.72 32 5.44 32 0 32 C0 21.44 0 10.88 0 0 Z " fill="#F5F7FF" transform="translate(280,232)"/>
<path d="M0 0 C5.28 0 10.56 0 16 0 C16 10.56 16 21.12 16 32 C10.72 32 5.44 32 0 32 C0 21.44 0 10.88 0 0 Z " fill="#F5F7FF" transform="translate(176,232)"/>
<path d="M0 0 C5.28 0 10.56 0 16 0 C16 10.56 16 21.12 16 32 C10.72 32 5.44 32 0 32 C0 21.44 0 10.88 0 0 Z " fill="#F5F7FF" transform="translate(280,144)"/>
<path d="M0 0 C5.28 0 10.56 0 16 0 C16 10.56 16 21.12 16 32 C10.72 32 5.44 32 0 32 C0 21.44 0 10.88 0 0 Z " fill="#F5F7FF" transform="translate(136,144)"/>
<path d="M0 0 C5.28 0 10.56 0 16 0 C16 10.56 16 21.12 16 32 C10.72 32 5.44 32 0 32 C0 21.44 0 10.88 0 0 Z " fill="#F5F7FF" transform="translate(280,56)"/>
<path d="M0 0 C5.28 0 10.56 0 16 0 C16 10.56 16 21.12 16 32 C10.72 32 5.44 32 0 32 C0 21.44 0 10.88 0 0 Z " fill="#F5F7FF" transform="translate(176,56)"/>
<path d="M0 0 C1.051875 -0.00515625 2.10375 -0.0103125 3.1875 -0.015625 C4.280625 -0.00015625 5.37375 0.0153125 6.5 0.03125 C8.1396875 0.00804687 8.1396875 0.00804687 9.8125 -0.015625 C10.864375 -0.01046875 11.91625 -0.0053125 13 0 C14.43859375 0.00676758 14.43859375 0.00676758 15.90625 0.01367188 C19.21298564 0.673525 20.40908706 1.94238555 22.5 4.53125 C23.03125 6.53125 23.03125 6.53125 23 8.53125 C23.0103125 9.19125 23.020625 9.85125 23.03125 10.53125 C22.2561666 13.44921104 20.80895833 14.6243588 18.5 16.53125 C15.90625 17.04882812 15.90625 17.04882812 13 17.0625 C11.948125 17.06765625 10.89625 17.0728125 9.8125 17.078125 C8.719375 17.06265625 7.62625 17.0471875 6.5 17.03125 C4.8603125 17.05445313 4.8603125 17.05445313 3.1875 17.078125 C2.135625 17.07296875 1.08375 17.0678125 0 17.0625 C-0.9590625 17.05798828 -1.918125 17.05347656 -2.90625 17.04882812 C-6.21298564 16.388975 -7.40908706 15.12011445 -9.5 12.53125 C-10.03125 10.53125 -10.03125 10.53125 -10 8.53125 C-10.01546875 7.54125 -10.01546875 7.54125 -10.03125 6.53125 C-8.65240655 1.34030994 -4.94094259 0.02324368 0 0 Z " fill="#96A0C3" transform="translate(9.5,247.46875)"/>
<path d="M0 0 C1.051875 -0.00515625 2.10375 -0.0103125 3.1875 -0.015625 C4.280625 -0.00015625 5.37375 0.0153125 6.5 0.03125 C8.1396875 0.00804687 8.1396875 0.00804687 9.8125 -0.015625 C10.864375 -0.01046875 11.91625 -0.0053125 13 0 C14.43859375 0.00676758 14.43859375 0.00676758 15.90625 0.01367188 C19.21298564 0.673525 20.40908706 1.94238555 22.5 4.53125 C23.03125 6.53125 23.03125 6.53125 23 8.53125 C23.0103125 9.19125 23.020625 9.85125 23.03125 10.53125 C22.2561666 13.44921104 20.80895833 14.6243588 18.5 16.53125 C15.90625 17.04882812 15.90625 17.04882812 13 17.0625 C11.948125 17.06765625 10.89625 17.0728125 9.8125 17.078125 C8.719375 17.06265625 7.62625 17.0471875 6.5 17.03125 C4.8603125 17.05445313 4.8603125 17.05445313 3.1875 17.078125 C2.135625 17.07296875 1.08375 17.0678125 0 17.0625 C-0.9590625 17.05798828 -1.918125 17.05347656 -2.90625 17.04882812 C-6.21298564 16.388975 -7.40908706 15.12011445 -9.5 12.53125 C-10.03125 10.53125 -10.03125 10.53125 -10 8.53125 C-10.01546875 7.54125 -10.01546875 7.54125 -10.03125 6.53125 C-8.65240655 1.34030994 -4.94094259 0.02324368 0 0 Z " fill="#96A0C3" transform="translate(9.5,215.46875)"/>
<path d="M0 0 C2.66303538 2.06462725 3.85136869 3.25516083 4.51757812 6.59375 C4.52208984 7.5528125 4.52660156 8.511875 4.53125 9.5 C4.53640625 10.551875 4.5415625 11.60375 4.546875 12.6875 C4.53140625 13.780625 4.5159375 14.87375 4.5 16 C4.51546875 17.093125 4.5309375 18.18625 4.546875 19.3125 C4.54171875 20.364375 4.5365625 21.41625 4.53125 22.5 C4.52673828 23.4590625 4.52222656 24.418125 4.51757812 25.40625 C3.85107404 28.74631573 2.67136274 29.9421674 0 32 C-3.75349462 32.46918683 -6.03848453 32.53136381 -9.375 30.6875 C-13.20251295 26.71277501 -12.29820594 20.79114554 -12.375 15.625 C-12.41238281 14.67882812 -12.44976562 13.73265625 -12.48828125 12.7578125 C-12.54773944 8.05400922 -12.55417183 5.75363605 -9.69921875 1.87109375 C-6.16772716 -0.57693009 -4.2124014 -0.68930205 0 0 Z " fill="#053D5A" transform="translate(428,184)"/>
<path d="M0 0 C5.28 0 10.56 0 16 0 C16 5.28 16 10.56 16 16 C10.72 16 5.44 16 0 16 C0 10.72 0 5.44 0 0 Z " fill="#0074FF" transform="translate(472,352)"/>
<path d="M0 0 C5.28 0 10.56 0 16 0 C16 5.28 16 10.56 16 16 C10.72 16 5.44 16 0 16 C0 10.72 0 5.44 0 0 Z " fill="#0074FF" transform="translate(472,216)"/>
</svg>
